<svg width="75" height="133" viewBox="0 0 75 133" fill="none" xmlns="http://www.w3.org/2000/svg">
    <path d="M24.5432 10.6676C29.806 0.602961 48.5153 3.80772 50.0409 10.3321" stroke="#020403" stroke-width="1.4" stroke-linecap="round"/>
    <path d="M1.03585 1C1.04455 1.01872 1.05326 1.03741 1.06199 1.05608C0.990498 1.02314 0.979568 1.00409 1.03585 1Z" fill="#020403"/>
    <path d="M31.5007 27C28.4655 15 8.00078 16 1.03585 1C-0.036408 1.07782 23.2848 6.58858 25.0007 10" stroke="#020403" stroke-width="1.4" stroke-linecap="round"/>
    <path d="M73.4656 1C73.4569 1.01872 73.4482 1.03741 73.4395 1.05608C73.511 1.02314 73.5219 1.00409 73.4656 1Z" fill="#020403"/>
    <path d="M43.0007 27C46.0359 15 66.5007 16 73.4656 1C74.5379 1.07782 51.2166 6.58858 49.5007 10" stroke="#020403" stroke-width="1.4" stroke-linecap="round"/>
    <path d="M31.5361 47C16.036 48 2.50086 32 14.0007 17.5C15.7915 19.6887 17.7381 21.0485 21.0008 22C15.5009 27.5 18.5009 33.5 21.5009 35C24.5009 36.5 33.5009 36.5 31.5009 26.5M60.0001 17C54.0001 21 54.1607 20.8666 53.0001 21.5M14.5008 17C17.0001 19 18.5001 20 21.5009 21.5" stroke="#020403" stroke-width="1.4" stroke-linecap="round"/>
    <circle cx="25.001" cy="27.5" r="2.3" fill="#020403" stroke="#020403" stroke-width="1.4"/>
    <path d="M42.9541 47C58.4542 48 71.9894 32 60.4895 17.5C58.6987 19.6887 56.7521 21.0485 53.4895 22C58.9894 27.5 55.9894 33.5 52.9894 35C49.9894 36.5 41.5007 36 43.5007 26" stroke="#020403" stroke-width="1.4" stroke-linecap="round"/>
    <circle cx="3" cy="3" r="2.3" transform="matrix(-1 0 0 1 52.4893 24.5)" fill="#020403" stroke="#020403" stroke-width="1.4"/>
    <path d="M35.3379 13.7535C35.1237 14.2087 35.2498 14.7399 35.3379 15.2136C35.4573 15.8551 35.4447 16.5105 35.4447 17.1603C35.4447 17.862 35.5971 18.5099 35.6465 19.202C35.8289 21.7556 35.7652 24.3342 35.7652 26.8939" stroke="#020403" stroke-width="3" stroke-linecap="round"/>
    <path d="M37.6882 21.125C38.3033 24.5077 38.2836 28.14 38.3233 31.5886C38.3309 32.2474 38.3292 32.9062 38.3292 33.565C38.3292 33.7972 38.2805 33.9327 38.4004 33.6837C38.9141 32.6169 39.3139 31.4622 39.6943 30.3422C40.3651 28.3672 40.4659 26.3832 40.4659 24.33" stroke="#020403" stroke-width="3" stroke-linecap="round"/>
    <path d="M35.4496 30.6445C35.3664 30.6445 35.2046 30.7753 35.2046 30.6921C35.2046 30.4456 35.2555 30.2383 35.4019 30.0321C35.5571 29.8138 36.0158 29.4121 35.6333 29.2633C35.2147 29.1006 34.9776 29.2441 34.5583 29.328C34.0978 29.4201 33.6398 29.1703 33.3677 28.8075" stroke="#020403" stroke-width="3" stroke-linecap="round"/>
    <path d="M13.1561 32.4118C13.5458 32.4118 13.2373 32.191 13.1114 31.9527C12.8082 31.3787 12.6074 30.8047 12.3813 30.1959C12.0897 29.4109 12.2378 28.4903 12.2378 27.6675C12.2378 26.6532 12.1402 25.5793 12.3526 24.5811C12.4876 23.9466 12.4372 23.2875 12.5853 22.6458C12.6754 22.2557 12.749 21.8646 12.8436 21.4756C12.8948 21.2651 12.8706 20.9708 12.9967 20.7869C13.2585 20.405 13.3164 19.9488 13.8448 19.8431" stroke="#020403" stroke-width="1.5" stroke-linecap="round"/>
    <path d="M14.7629 22.5405C14.8071 22.739 14.871 22.9222 14.9351 23.1144" stroke="#020403" stroke-width="1.5" stroke-linecap="round"/>
    <path d="M13.7617 19.3011C13.5945 19.322 13.9773 19.2362 14.0422 19.3011C14.1133 19.3721 14.1988 19.465 14.2718 19.5307C14.3542 19.6049 14.443 19.5128 14.479 19.6391C14.5319 19.824 14.8998 19.9662 15.0402 20.0472C15.1769 20.1261 15.1404 20.2772 15.2538 20.3597C15.3548 20.4331 15.4349 20.5274 15.5344 20.602C15.7676 20.7769 16.0365 20.8892 16.2614 21.0611C16.4927 21.238 16.654 21.4967 16.915 21.6478C17.2798 21.859 17.6066 22.1077 17.9512 22.3046C18.1492 22.4177 18.6889 22.3042 18.9205 22.311C19.2095 22.3195 19.0788 22.3844 18.9237 22.4321C18.7026 22.5002 18.3617 22.699 18.2318 22.8976C18.1536 23.0173 18.1544 23.2184 18.1489 23.3568C18.1395 23.593 17.7838 24.0238 17.6356 24.2017C17.467 24.404 17.3138 24.5772 17.2434 24.8234C17.211 24.9368 17.1434 25.4314 17.2976 25.1487C17.3829 24.9923 17.9679 23.7248 18.1234 23.8414C18.3336 23.999 17.5786 25.181 17.5144 25.4484C17.4347 25.7807 17.2638 26.0832 17.1701 26.4113C17.1352 26.5333 17.0354 26.6083 16.9979 26.7333C16.9592 26.8624 16.9159 27.0333 16.8417 27.1446C16.6878 27.3754 16.7715 27.8413 16.7715 28.1011C16.7715 28.3945 16.7715 28.6878 16.7715 28.9811C16.7715 29.4105 16.7715 30.6986 16.7715 30.2692C16.7715 29.6597 16.8238 29.0505 16.8289 28.4391C16.8358 27.6129 17.0495 26.8048 17.1127 25.984C17.1579 25.3959 17.6007 24.9489 17.9066 24.4791C18.1673 24.0787 18.2731 23.4627 18.8121 23.2994C19.0539 23.2261 17.8266 22.5989 17.7025 22.5405C16.9661 22.1944 16.2432 21.767 15.5695 21.313C15.2097 21.0705 14.8564 20.8608 14.479 20.6721C14.4446 20.6549 13.968 20.4023 14.0295 20.602C14.13 20.9287 14.4878 21.0198 14.7628 21.1631C15.2629 21.4238 15.7672 21.8188 16.1912 22.1898C16.5799 22.5299 17.0484 22.767 17.3454 23.2037C17.3609 23.2265 17.4885 23.453 17.4666 23.446C17.1271 23.338 16.7803 23.2931 16.4559 23.1336C15.5856 22.7058 14.8763 21.7495 13.9019 21.5203C13.6664 21.4648 13.4019 21.53 13.6469 21.7913C13.7751 21.928 13.9729 22.0268 14.1251 22.1356C14.3134 22.2701 14.4224 22.4771 14.6034 22.6234C15.0548 22.9884 15.5243 23.3415 16.0063 23.6629C16.2385 23.8176 16.5024 23.9453 16.6982 24.1411C16.8329 24.2758 16.3236 24.0657 16.1434 24.004C15.8458 23.9022 15.5448 23.7825 15.2538 23.6629C14.9302 23.5298 14.6523 23.3352 14.3738 23.1272C14.1808 22.983 13.9354 22.9574 13.7617 22.802C13.4175 22.4941 12.3947 22.2069 12.1101 22.7446C11.9527 23.0419 11.9104 23.4372 11.753 23.7521C11.475 24.3081 11.5489 24.9519 11.5489 25.5504C11.5489 25.9494 11.3521 26.3739 11.1918 26.7301C11.0823 26.9734 11.0277 26.5141 10.9814 26.3634C10.9389 26.2254 10.975 26.67 10.975 26.7556C10.975 27.316 10.8571 27.9866 10.9782 28.5316C11.1464 29.2885 10.9243 26.9671 10.7167 26.22C10.6233 25.8837 10.7825 26.4237 10.7964 26.5005C10.8494 26.7917 10.8528 27.1795 10.8602 27.4762C10.8764 28.1252 10.8031 28.7569 10.7422 29.3956C10.6608 30.2506 11.0539 31.0117 11.1472 31.8507C11.1814 32.1585 11.285 32.5177 11.348 32.8327C11.3753 32.9691 11.464 33.0749 11.4851 33.2121C11.507 33.354 11.4839 33.4799 11.5361 33.6171C11.6006 33.7863 11.7154 33.91 11.7211 34.1017C11.7272 34.3108 11.89 34.367 11.9443 34.5162C12.0286 34.7481 11.9456 34.8391 12.1547 34.9498C12.2777 35.0149 12.2468 35.3213 12.4353 35.3898C12.7248 35.4951 12.7992 35.9135 12.939 36.1423C13.056 36.3336 13.2353 36.5072 13.3248 36.7162C13.3587 36.7952 13.3747 36.8594 13.3886 36.9426C13.4059 37.0464 13.5412 36.9624 13.5576 37.0606C13.5877 37.2414 13.7468 37.2274 13.7999 37.3603C13.8636 37.5194 14.0122 37.6875 14.157 37.7811C14.256 37.8452 14.416 38.1364 14.4727 38.2403C14.6064 38.4854 14.7929 38.6465 14.986 38.8397C15.3386 39.1922 15.6792 39.5155 15.9457 39.9301C16.0604 40.1085 16.1839 40.3724 16.3953 40.4594C16.5796 40.5353 16.5391 40.84 16.7173 40.8994C16.8691 40.95 16.9408 40.9167 17.033 41.0748C17.1061 41.2001 17.406 41.2127 17.5176 41.3522C17.669 41.5414 18.0355 41.5681 18.1489 41.7667C18.2088 41.8715 18.6274 42.2665 18.7356 42.2832C18.875 42.3046 19.0776 42.5347 19.182 42.6275C19.4575 42.8725 19.809 43.0686 20.1289 43.2588C20.3725 43.4037 20.5345 43.6598 20.8017 43.7626C21.0265 43.8491 21.2236 44.0232 21.4298 44.1484C21.6984 44.3115 21.9536 44.4757 22.2237 44.6107C22.4132 44.7054 22.4909 44.8469 22.7275 44.8658C22.89 44.8788 23.1348 45.0216 23.2822 45.0954C23.5609 45.2347 23.8775 45.2688 24.1431 45.4365C24.438 45.6227 24.8954 45.6623 25.224 45.784C25.4629 45.8725 25.6827 45.9937 25.9414 46.0136C26.1243 46.0277 26.2696 46.1858 26.4388 46.1858C26.6676 46.1858 26.932 46.2521 27.1594 46.2878C28.1085 46.4367 29.2615 45.9522 30.244 45.8366C30.5361 45.8023 30.8644 46 31.1651 46C31.3766 46 31.7884 45.8366 31.9999 45.8366C32.6094 45.8366 32.8344 46.4271 33.4278 46.4727C33.5582 46.4828 33.6803 46.4856 33.7849 46.5378C33.9033 46.5971 33.9253 46.6836 34.0463 46.7469C34.2697 46.864 34.7449 46.6229 34.9289 46.7916C35.344 47.1721 35.9216 47.4335 36.3892 47.7545C36.6596 47.9401 36.5647 47.6606 36.831 47.8479C36.9411 47.9255 37.623 48.2115 37.3941 47.9522C37.6747 47.5568 37.283 48.3728 37.098 48.2447M37.098 48.2447C36.815 48.0488 35.989 48.2268 35.7808 47.9522C35.5942 47.706 35.4098 47.346 35.1049 47.2443C34.8413 47.1565 34.5935 47.0337 34.3205 46.9765C34.1466 46.9401 34.5004 46.2913 34.3205 46.3197C33.9889 46.3721 34.2852 46.5946 34.346 46.6609C34.4846 46.8121 34.5118 46.4517 34.684 46.5378C34.9343 46.663 35.1528 47.2571 35.3788 47.4229C35.7867 47.722 36.7623 47.5741 37.2221 47.827C37.6063 46.8763 37.7002 47.0291 37.1136 48.1052C37.8298 47.0722 37.1073 47.9723 37.1136 47.9522C37.1557 47.8174 37.1572 48.3532 37.098 48.2447ZM37.098 48.2447C36.8735 47.8332 36.1219 47.8373 35.9147 47.4229C35.7149 47.0233 35.5858 46.6616 35.2834 46.3197C35.0291 46.0323 34.7806 45.6311 34.4225 45.4684C34.353 45.4368 34.3379 45.4512 34.2727 45.462C34.1166 45.488 33.6081 44.9669 33.4852 44.8785C33.0769 44.5851 32.624 44.3587 32.197 44.0942C31.318 43.5497 30.4683 42.9724 29.5762 42.449C28.8418 42.0182 28.1695 41.4941 27.4463 41.0461C26.8391 40.6699 26.2318 40.3157 25.6449 39.9078C24.4127 39.0516 23.0661 38.3999 21.7582 37.6727C20.2806 36.8513 18.8386 36.1947 17.575 35.0487C17.0512 34.5736 16.4549 34.0657 16.0733 33.464C15.6678 32.8249 15.452 31.9832 15.2921 31.2513C15.1069 30.4036 15.1142 29.5598 15.0625 28.7005C15.0018 27.6915 15.0498 26.6658 15.0498 25.6556C15.0498 25.1304 15.0958 24.6209 15.2219 24.1092C15.4709 23.0995 16.1274 24.3114 16.3124 24.715C16.8991 25.9956 17.0398 27.3316 17.0585 28.7261C17.0592 28.7775 17.1006 30.0728 16.9628 29.9153C16.8075 29.7379 16.7208 29.4593 16.6376 29.249C16.3816 28.6018 16.1538 27.9446 15.9521 27.2785C15.7523 26.6189 15.5826 25.952 15.4196 25.2826C15.3774 25.1092 15.301 24.7771 15.2475 24.5875C15.2306 24.5279 15.2337 24.3897 15.1773 24.4153C15.0142 24.4895 15.3485 26.2118 15.3559 26.2965C15.4935 27.8882 15.4898 29.489 15.6173 31.0823C15.6198 31.1131 15.6335 31.1454 15.6237 31.1748C15.5953 31.2599 15.583 31 15.5599 30.9133C15.3729 30.2112 15.1503 29.519 14.9573 28.8185C14.5162 27.2175 14.3014 25.4871 13.666 23.9466C13.4116 23.3299 13.5625 24.4649 13.5672 24.5078C13.7627 26.3161 13.778 28.1626 14.0741 29.9568C14.1074 30.1582 14.2272 30.754 14.2272 30.5498C14.2272 30.341 14.0376 29.8711 13.9976 29.7145C13.6129 28.2098 13.3198 26.6822 13.1686 25.1359C13.0793 24.2222 13.44 26.9519 13.5831 27.8588C13.7776 29.0918 13.9808 30.3208 14.2272 31.5446C14.3431 32.1205 14.3862 32.9454 14.6417 33.4927C14.9924 34.2442 14.2845 31.873 14.106 31.0632C13.8352 29.8345 13.6632 28.5641 13.2834 27.3614C13.2333 27.2029 13.2472 27.3887 13.2515 27.4124C13.3209 27.7986 13.4705 28.1943 13.5895 28.5634C14.378 31.0101 15.5466 33.2793 16.6886 35.5748C17.0079 36.2165 18.0211 38.1108 17.6451 37.5006C16.5541 35.7298 15.5123 33.9428 14.5205 32.1121C14.1487 31.426 13.7979 30.7273 13.4173 30.0461C13.3334 29.8959 13.2176 29.4908 13.1144 29.6284C13.0674 29.6911 13.2251 30.0211 13.2324 30.0397C13.5279 30.7967 13.8217 31.5522 14.0996 32.3162C14.682 33.9169 15.3294 35.4909 15.9425 37.0797C15.9852 37.1902 16.0274 37.3008 16.0701 37.4113C16.1245 37.5524 16.1352 37.5617 16.0733 37.4527C15.8203 37.0075 15.5708 36.5594 15.3367 36.104C14.2021 33.8965 13.2619 31.5979 12.2248 29.3446C12.1422 29.165 12.0869 28.6577 11.9634 28.8121C11.8683 28.931 12.2087 29.6449 12.2344 29.7113C12.9292 31.5051 13.7056 33.2701 14.597 34.9753C14.9557 35.6616 15.3344 36.3413 15.7576 36.9904C15.8167 37.0811 16.0474 37.3117 15.9808 37.2264C14.5324 35.3694 13.424 33.3006 12.177 31.3055C11.8811 30.832 12.1233 31.5228 12.1738 31.6498C12.6233 32.7791 13.1602 33.8718 13.6118 35.0008C13.6736 35.1553 14.6797 37.7733 14.7915 37.7174C14.9186 37.6538 13.5991 34.8521 13.5002 34.6437C13.1546 33.9154 12.8186 33.1134 12.3332 32.4629C12.108 32.161 12.3422 32.6063 12.3875 32.6924C12.9123 33.6921 13.5003 34.6688 14.0677 35.6449C14.1729 35.8258 14.3003 36.0997 14.4504 36.2635C14.5817 36.4067 14.3239 35.8958 14.2527 35.7151C13.4248 33.6136 12.8748 31.375 11.8932 29.3382C11.8645 29.2785 11.7448 28.9913 11.7912 29.2234C11.9309 29.9217 12.2854 30.606 12.5851 31.2417C12.9897 32.0996 13.3902 32.9824 13.9019 33.7829C14.7191 35.061 15.7249 36.1258 16.9086 37.0701C17.6653 37.6737 18.4962 38.2329 19.3541 38.6866C19.5183 38.7735 19.7782 38.9514 19.6953 38.6452C19.439 37.6989 19.0469 36.7626 18.7356 35.8362C18.1979 34.2363 17.6841 32.6285 17.1477 31.0281C16.9327 30.3864 16.725 29.7336 16.4782 29.1023C16.4342 28.9898 16.3226 28.848 16.4208 29.0321C17.1524 30.4039 17.813 31.808 18.4996 33.2026C19.0766 34.3744 19.6836 35.5291 20.3106 36.6748C20.6418 37.2797 20.9653 37.9705 21.3692 38.54C22.2921 39.8411 19.866 35.7256 19.0799 34.3377C18.5045 33.3216 17.9395 32.2999 17.3709 31.28C17.1562 30.8947 16.6052 29.7264 16.6599 30.164C16.6966 30.4572 16.9833 30.9318 17.0776 31.1748C17.4283 32.0784 17.7327 32.9994 18.0724 33.9072C18.452 34.9216 18.8534 35.9286 19.2585 36.933C19.577 37.7229 19.5918 37.7512 19.8898 38.4571C19.9348 38.5637 20.0856 38.8707 20.0109 38.7823C19.6439 38.3478 19.3225 37.7806 19.0225 37.3124C18.1483 35.9481 17.3112 34.5582 16.5292 33.1388C15.9373 32.0645 15.4008 30.9713 14.9095 29.8484C14.7929 29.5818 14.3959 28.8044 14.5333 29.0608C15.2864 30.4668 15.766 31.9812 16.3506 33.464C17.4212 36.1795 18.6846 38.8418 20.1895 41.3458C20.3211 41.5648 20.7937 42.1498 20.5849 42.0026C20.2707 41.7811 19.9685 41.5059 19.6793 41.2565C18.3595 40.1178 17.0936 38.9164 15.7321 37.8258C15.6112 37.7289 15.1304 37.2582 14.9477 37.2582C14.8831 37.2582 15.0341 37.3566 15.088 37.3922C15.4319 37.6188 15.8059 37.7953 16.1498 38.0235C17.2735 38.769 18.221 39.7364 19.1979 40.6571C19.8533 41.2748 20.5114 41.8921 21.2098 42.4617C21.4865 42.6874 21.8688 43.0514 22.2301 43.1632C22.3109 43.1882 21.9285 42.7862 21.8985 42.7614C21.4969 42.4302 21.0824 42.1123 20.6486 41.824C20.0825 41.4478 19.4914 41.1171 18.9333 40.7272C18.1012 40.1461 17.3045 39.4904 16.4272 38.9768C16.3428 38.9274 16.1452 38.7934 16.2677 38.9704C16.5971 39.4462 17.2718 39.7172 17.7535 40.0003C18.7307 40.5744 19.6987 41.1685 20.7634 41.569C22.0185 42.041 23.3326 42.3439 24.6405 42.6275C26.0863 42.9411 27.5156 43.2628 28.9449 43.6351C29.3884 43.7506 29.8211 43.8412 30.2712 43.9188C30.6677 43.9872 29.6851 44.1672 29.6654 44.1707C28.5402 44.373 27.4527 44.626 26.2985 44.598C25.671 44.5827 25.0534 44.4943 24.4428 44.3525C24.2596 44.3099 23.8293 44.2453 23.6457 44.1229C23.5853 44.0826 23.7906 44.1354 23.8625 44.1452C24.16 44.1859 24.4557 44.2135 24.7553 44.2345C25.6993 44.3007 26.633 44.445 27.5738 44.5406C28.3554 44.62 29.1599 44.6362 29.946 44.6362C30.5603 44.6362 31.0202 44.9216 31.6167 45.038C31.9093 45.095 32.1937 45.222 32.4872 45.2611C32.6524 45.2832 32.7932 45.3403 32.5095 45.2994C31.0155 45.0841 29.5131 45.0954 28.0075 45.0954C27.3203 45.0954 26.5835 45.178 25.9191 44.9774C25.0806 44.7243 24.2976 44.2513 23.5182 43.8519C23.2863 43.733 23.0193 43.4606 22.753 43.431C22.6301 43.4174 23.0295 43.431 23.0463 43.431C23.7104 43.431 24.375 43.4382 25.0391 43.4246C25.6024 43.4131 26.1654 43.3907 26.7257 43.329C26.9099 43.3087 27.2577 43.3289 26.9362 43.1823C26.1684 42.8322 25.6126 42.2757 24.9721 41.7411C24.1038 41.0165 23.1953 40.3113 22.1536 39.8536C21.5542 39.5903 20.8859 39.4668 20.3106 39.1522C20.2855 39.1384 20.2284 39.0792 20.2564 39.0852C20.6836 39.1767 21.1089 39.3203 21.5318 39.4295C22.7794 39.752 23.9546 40.2211 25.1634 40.6571C25.2082 40.6732 26.3121 41.0224 25.8138 40.9249C24.3022 40.6291 22.7828 40.4994 21.2863 40.1023C19.9226 39.7405 15.9427 38.2869 17.2753 38.7504C18.5173 39.1824 19.776 39.5754 21.0089 40.0322C22.9971 40.7688 24.8769 41.7984 26.7927 42.7009C27.317 42.9478 27.8437 43.2027 28.3901 43.3991C28.5467 43.4554 28.7277 43.5 28.4666 43.3417C26.8586 42.3672 25.141 41.5485 23.4799 40.6698C22.752 40.2848 22.0325 39.8862 21.3214 39.471C21.1607 39.3771 20.6679 39.1245 20.8463 39.1777C21.8503 39.4767 22.8596 39.7719 23.8625 40.0768C25.1899 40.4803 26.4949 40.9547 27.746 41.5562C27.7816 41.5733 27.8902 41.6207 27.8544 41.604C27.2541 41.3253 26.5323 41.211 25.8936 41.078C24.2888 40.7436 22.6896 40.576 21.0599 40.4435C20.6635 40.4112 20.2925 40.2936 19.928 40.1374C19.3887 39.9062 21.0808 40.366 21.6434 40.5327C23.0655 40.9541 24.3938 41.6002 25.7883 42.0919C25.9231 42.1394 26.2388 42.241 26.375 42.111C26.4654 42.0247 25.0664 40.4883 24.9849 40.3924C24.0396 39.2816 23.0884 38.1891 22.0611 37.153C22.0212 37.1128 21.0181 36.1194 21.3054 36.1359C21.982 36.1748 22.626 36.53 23.3141 36.5887C23.7191 36.6232 24.0997 36.6894 24.5002 36.7481C24.8371 36.7975 25.2739 36.7641 24.6596 36.6014C23.6826 36.3426 22.6667 36.4155 21.6689 36.3432C21.4572 36.3278 21.189 36.2965 21.6083 36.3208C22.7284 36.3858 23.8738 36.5509 24.9594 36.831C25.7255 37.0287 26.4889 37.418 27.2869 37.4623C27.808 37.4912 26.2463 37.3483 25.7246 37.3603C25.1696 37.373 24.6169 37.4228 24.0666 37.4942C23.9066 37.5149 23.5833 37.5246 23.4321 37.6313C23.4016 37.6528 24.3888 37.6354 24.4907 37.6217C25.6571 37.465 27.0846 37.353 27.9947 36.544C28.2164 36.347 27.5054 36.8804 27.2486 37.0287C26.9106 37.2239 26.5737 37.4235 26.2283 37.6058C26.132 37.6566 25.8695 37.8 25.9159 37.7014C26.18 37.1401 27.0286 36.7061 27.4846 36.3208C27.805 36.0501 28.1172 35.7669 28.3901 35.4472C28.5493 35.2607 29.066 36.442 28.9449 35.3835C29.066 36.0403 29.3587 36.1057 29.3466 36.1359C29.2803 36.3018 28.6015 35.1662 28.4857 35.2687C28.3027 35.4308 27.7966 35.7196 27.7173 35.9733C27.7091 35.9995 27.7569 36.0224 27.7843 36.0211C28.1341 36.0055 28.4713 35.8835 28.8109 35.7979C29.8136 35.5453 30.8141 35.2703 31.7825 34.9052C32.2103 34.7439 32.6922 34.5717 32.9941 34.2037C33.2642 33.8747 33.4781 33.4777 33.7275 33.1324C34.1876 32.4954 34.6753 31.8834 35.1782 31.28C35.5998 30.774 36.11 30.2204 36.4121 29.6284C36.479 29.4972 36.6697 28.8372 36.4536 28.7675C36.2602 28.7051 35.8857 28.9081 35.7425 28.9811C35.2494 29.2327 34.8045 29.559 34.4194 29.9568C33.5258 30.8796 33.0317 32.0547 32.4776 33.1898C32.4634 33.2189 31.9453 34.1994 31.9356 34.0571C31.9113 33.7022 33.2274 33.4007 33.2823 33.0595C33.3988 32.3354 33.5509 31.6203 33.7223 30.9073C33.8436 30.4029 33.6113 28.7357 33.5362 29.249C33.5048 29.4634 34.6533 30.2728 33.8594 30.0114C34.2771 31.1369 33.0651 31.9358 32.7084 32.916C32.1103 34.5595 30.3662 36.1248 29.7165 37.7493C29.5143 38.2547 29.6668 37.3426 29.6782 37.2774C29.9526 35.712 32.6808 35.4187 33.1612 33.9072C33.2501 33.6274 33.573 30.9773 34.1751 31.3888C34.546 31.6422 33.8151 31.9216 33.9264 32.3294C34.1762 33.2449 33.0378 34.0972 33.1153 35.0391C33.1845 35.8795 33.2277 36.7224 33.2747 37.5643C33.2841 37.7322 33.33 38.2329 33.297 38.0681C33.0356 36.761 32.5811 35.4542 32.5541 34.1081C32.5472 33.7612 32.7545 34.7768 32.7901 35.122C32.8602 35.8018 32.8389 36.4901 32.8443 37.1722C32.8535 38.3371 32.8865 39.5017 32.8953 40.6667C32.9007 41.38 32.9495 43.5194 32.9495 42.8061C32.9495 42.6621 32.8891 42.4653 32.8602 42.3342C32.6811 41.5206 32.4419 40.7234 32.2098 39.9238C31.7712 38.4132 31.235 36.9136 30.8707 35.3835C30.6506 34.4592 31.265 35.7021 31.3425 35.8808C32.1663 37.7798 32.5147 39.861 33.0515 41.8496C33.19 42.3626 33.3231 42.9217 33.5362 43.4151C33.5625 43.476 33.5851 43.5201 33.5776 43.4342C33.5692 43.3376 33.5359 43.2371 33.5075 43.1472C33.0954 41.8424 32.7403 40.5337 32.417 39.2032C32.1599 38.145 32.0052 37.022 31.6805 35.9829C31.6574 35.9088 31.7774 36.1047 31.8336 36.1582C32.0866 36.3992 32.2873 36.6174 32.4585 36.933C33.5678 38.9782 34.0555 41.3286 34.7605 43.5267C34.8277 43.736 34.9414 44.2174 35.1112 44.4258C35.1547 44.4791 35.0877 44.2893 35.0634 44.2249C34.765 43.434 34.4468 42.6505 34.1579 41.8559C33.8305 40.9554 33.5506 40.0396 33.2046 39.1458C32.9136 38.394 33.7203 40.6746 33.9252 41.4542C34.3852 43.2054 34.6181 45.0194 35.1431 46.7533C35.1528 46.7852 35.1618 46.8188 35.1814 46.8458C35.2192 46.8978 35.175 46.7159 35.1559 46.6545C34.9913 46.1264 34.7358 45.621 34.5182 45.1145C33.6402 43.07 32.799 41.0102 31.8591 38.9927C31.6255 38.4913 31.3966 37.9585 31.1002 37.4878C31.085 37.4636 31.0205 37.4153 31.0269 37.4432C31.0499 37.543 31.1978 37.8663 31.2023 37.8768C32.1144 40.0103 32.8467 42.211 33.6286 44.3939C33.6798 44.5367 33.7366 44.6774 33.7849 44.8211C33.8026 44.874 33.7045 44.7418 33.6765 44.6936C33.1257 43.7477 32.624 42.7711 32.111 41.8049C31.2717 40.2245 30.4368 38.6417 29.5634 37.0797C29.3642 36.7234 28.9743 35.8241 28.6037 35.5046C28.5019 35.4168 28.5937 35.7797 28.6388 35.9064C28.9924 36.9002 29.4661 37.8563 29.8631 38.8333C30.2161 39.7021 30.5398 40.5824 30.893 41.451C31.0392 41.8107 31.1856 42.2258 31.4127 42.551C31.9776 43.3602 30.4094 40.8507 29.8727 40.0226C29.4769 39.4119 29.0504 38.8245 28.626 38.2339C28.5469 38.1237 28.5148 37.9557 28.3901 37.9023C27.977 37.7253 29.0069 38.5583 29.3466 38.8524C29.8281 39.2694 30.3248 39.6707 30.7878 40.1087C31.0436 40.3507 31.3912 40.655 31.553 40.9823C31.6091 41.0959 31.2914 40.9819 31.1767 40.9281C30.6851 40.6973 30.2129 40.4253 29.7547 40.1342C28.6547 39.4353 27.6601 38.5731 26.5344 37.9151C26.4633 37.8735 25.6324 37.3996 25.8967 37.8098C26.5167 38.7718 27.7099 39.339 28.5814 40.0353C29.1873 40.5195 29.7372 41.059 30.2904 41.6009C30.8094 42.1092 30.399 41.7144 30.7112 42.0026C30.7386 42.0278 30.6477 41.964 30.6156 41.9452C29.5333 41.3104 28.4579 40.6704 27.3889 40.013C26.6607 39.5652 25.9107 39.0472 25.1188 38.7122C24.5683 38.4793 26.1558 39.307 26.6683 39.6145C28.3042 40.596 29.7183 41.8596 31.1831 43.0707C31.5177 43.3474 31.8637 43.6559 32.2417 43.8774C32.2681 43.8928 32.2978 43.9153 32.3278 43.9093C32.3956 43.8957 32.2364 43.8041 32.1811 43.7626C31.1042 42.9549 29.93 42.2626 28.8365 41.4733C28.2157 41.0253 27.5956 40.5779 26.9457 40.1724C26.8299 40.1002 26.4677 39.9155 26.5982 39.9556C26.7475 40.0016 26.9473 40.1582 27.0733 40.2267C27.7055 40.5702 28.3159 40.8925 28.8875 41.3394C30.1609 42.335 31.1352 43.5828 32.2863 44.6968C32.3367 44.7455 32.3878 44.7944 32.4457 44.8339C32.5557 44.9088 32.4853 44.7843 32.4712 44.7638C32.1997 44.3658 31.8594 44.0254 31.5976 43.6159C30.9489 42.6014 30.396 41.5237 29.9588 40.402C29.8045 40.0062 29.6255 39.8404 30.1118 40.0449C31.9508 40.8183 33.2418 42.4072 34.4672 43.922C35.0539 44.6474 35.6015 45.4029 36.1411 46.1635C36.2805 46.36 36.4157 46.5595 36.5588 46.7533C36.5652 46.7621 36.6119 46.863 36.6257 46.8075C36.6692 46.6338 36.9838 46.7001 37.1391 46.7023C38.4132 46.7203 39.6583 46.7076 40.9333 46.6545C41.1059 46.6473 40.9942 46.7162 40.9142 46.7916C39.5 46.5 39.5925 46.8991 39.3798 47.0977C39.0939 47.3645 38.8819 47.0731 38.542 47.273C38.1601 47.4977 37.9113 47.7069 37.4922 47.8479C36.7971 47.2676 37.8749 47.8126 37.3941 47.8208C37.0435 47.8267 36.0068 47.9175 36.342 47.8144C36.6123 47.7312 37.1235 48.5592 37.1235 48.216C37.1235 47.7288 36.8247 47.7615 37.1423 47.391C37.3642 47.1321 37.9882 47.1127 38.3252 47.104C38.3808 47.1026 38.5613 47.0838 38.542 47.0977C38.3267 47.2527 38.1037 47.3632 37.8628 47.4739C37.731 47.5345 37.5889 47.5178 37.4675 47.5664C37.3165 47.6267 37.7991 47.541 37.9457 47.4707C38.5288 47.1913 39.0055 46.7012 39.4602 46.2559C39.7157 46.0058 43.323 43.9268 42.9994 43.6032" stroke="#020403" stroke-width="1.5" stroke-linecap="round"/>
    <path d="M19.7239 35.3693C20.1468 35.6621 20.5496 35.7537 20.9939 35.9759C21.3027 36.1303 21.4991 36.4162 21.8374 36.5446C22.7463 36.8893 23.6888 36.9047 24.6571 36.9047C25.1852 36.9047 25.7152 36.8435 26.2351 36.7531C26.518 36.7039 26.7768 36.8194 27.0597 36.8194C27.8568 36.8194 28.8694 36.9805 29.595 36.6251C30.603 36.1314 31.4171 35.3038 32.4999 34.9428C33.089 34.7465 33.6291 34.3088 34.0069 33.8245C34.7611 32.8576 34.8368 31.4762 34.9926 30.3082C35.2744 28.1944 35.1773 26.0297 35.1632 23.9012C35.1526 22.3011 34.9926 20.7109 34.9926 19.1102C34.9926 18.9675 34.9773 18.7604 34.9926 19.0296C35.0177 19.4742 35.2395 19.9129 35.3812 20.3281C36.1556 22.598 36.2721 24.9727 36.2721 27.3511" stroke="#020403" stroke-width="1.5" stroke-linecap="round"/>
    <path d="M42.4802 46.8326C42.4486 46.8687 42.6226 46.8515 42.6226 46.8515C42.6226 46.8515 42.533 46.8636 42.5032 46.8934C42.4861 46.9105 42.5159 46.9604 42.4802 46.9646C42.4558 46.9675 42.4293 46.9646 42.4047 46.9646C42.3545 46.9646 42.3042 46.9646 42.2539 46.9646" stroke="#020403" stroke-width="1.5" stroke-linecap="round"/>
    <path d="M36.6134 38.0136C36.336 37.9442 36.1572 36.4525 36.1206 36.2507C35.9085 35.0819 35.7389 33.8046 35.7604 32.6112C35.7723 31.9489 35.9247 31.1105 36.1016 30.4693C36.282 29.8155 36.0976 31.8377 35.9405 32.4975C35.4984 34.3544 34.3956 36.0135 34.3956 37.9283C34.3956 38.3663 34.3468 38.8403 34.4146 39.2741C34.4696 39.6264 34.6252 40.3294 34.8979 40.5631C35.1815 40.8061 35.5615 41.4022 35.6656 41.7668C35.8326 42.3512 36.2275 42.8881 36.3528 43.4728C36.4418 43.8882 36.7155 44.4433 37.0352 44.7096C37.2384 44.8789 37.5435 44.2658 37.7034 44.1552C37.969 43.9713 38.1975 43.7216 38.5279 43.6244C38.7891 43.5476 39.7695 43.3482 39.7695 43.0463C39.7695 42.6796 39.7086 42.5084 39.561 42.1743C39.1387 41.2186 38.4569 40.3816 38.0256 39.4163C37.6419 38.5576 37.424 37.5061 37.4712 36.5635C37.5255 35.4772 38.1484 34.4578 38.2294 33.3647C38.2575 32.985 38.4047 32.6371 38.4047 32.2558C38.4047 31.9351 38.4163 31.5442 38.5327 31.2417C38.7651 30.6374 38.728 29.982 38.7364 29.3272C38.7677 26.8966 38.7459 24.4648 38.7459 22.034C38.7459 21.7098 38.7681 21.3632 38.727 21.0389C38.6674 20.5691 38.2006 19.9063 38.7649 19.7215C39.4252 19.5051 40.0879 19.2141 40.7552 18.9917C41.1065 18.8746 41.4968 18.6949 41.7978 18.4799C42.3503 18.0852 43.0889 17.9875 43.7123 17.7311C45.5124 16.9907 46.9336 15.3759 48.8208 14.8452C50.2549 14.4418 51.5274 13.5695 52.9152 13.0491C54.0902 12.6085 55.2927 11.997 56.3983 11.4047C57.4079 10.8639 58.5145 10.4254 59.5875 10.0352C59.6846 9.99988 59.9545 9.97394 59.8719 9.91197C59.7557 9.82481 59.231 10.0632 59.1468 10.092C58.4663 10.3251 57.8036 10.6035 57.1518 10.9071C55.3373 11.7525 53.4733 12.4944 51.5788 13.1344C51.2238 13.2544 50.7856 13.2431 50.4131 13.2955C49.8761 13.371 49.3547 13.5195 48.8113 13.5325C47.2196 13.5704 45.5901 13.8518 44.0345 14.158C42.7053 14.4197 41.3126 14.194 39.9733 14.3428C38.0688 14.5544 36.4031 13.8858 34.6373 13.3145C33.5599 12.9659 32.4862 12.9289 31.3627 12.8501C30.6508 12.8001 29.8782 12.7559 29.1781 12.6274C28.7797 12.5542 28.3993 12.3611 27.9981 12.2719C27.2416 12.1038 26.3376 11.9346 25.5623 11.9118C25.2695 11.9032 24.9205 11.8265 24.5861 11.8265C23.989 11.8265 23.4078 11.7547 22.8138 11.7412C22.4331 11.7325 22.2541 11.4758 21.8755 11.4758C21.2671 11.4758 20.6225 11.2684 20.0178 11.182C19.6967 11.1361 19.3922 11.0682 19.0843 10.9735C18.6139 10.8288 18.1547 10.7229 17.6815 10.5849C16.0501 10.109 14.2972 9.46136 12.8526 8.56612C12.4347 8.30711 12.0397 8.00855 11.6205 7.75103C11.2379 7.51601 10.7938 7.47957 10.4074 7.26767C10.0113 7.05045 9.58338 6.86525 9.21315 6.62318C8.84328 6.38134 8.38667 6.34431 8.03791 6.09242C7.67084 5.82732 7.2766 5.5991 6.90058 5.34842C6.60129 5.1489 7.60713 5.51428 7.96683 5.51428C8.22751 5.51428 8.53025 5.46269 8.76296 5.59958C8.95135 5.7104 9.2447 5.5998 9.39797 5.72753C9.67611 5.95931 10.1714 5.99632 10.5163 6.03082C10.8351 6.06269 11.0366 6.29772 11.322 6.3578C11.5296 6.40151 11.7631 6.3144 11.9617 6.40519C12.3684 6.5911 12.9036 6.72478 13.2412 7.01177C13.5313 7.25839 13.9908 7.28127 14.3122 7.40983C14.6411 7.5414 15.0415 7.66323 15.3927 7.75103C15.6349 7.81159 15.7576 7.98565 15.9708 8.09223C16.1432 8.17841 16.2978 8.1333 16.4779 8.16332C16.6493 8.19189 16.5972 8.41448 16.8238 8.41448C17.0208 8.41448 17.1572 8.5227 17.2882 8.66564C17.4966 8.89301 18.1567 9.02902 18.2692 9.31013C18.3239 9.44701 18.8986 9.56932 19.089 9.60394C19.3633 9.65381 19.592 9.92808 19.8283 10.0826C20.0775 10.2455 20.524 10.476 20.7855 10.5659C20.9748 10.631 21.1313 10.7594 21.3258 10.8408C21.6012 10.9561 21.8874 11.2531 22.1124 11.4474C22.634 11.8978 23.4919 12.0553 24.0933 12.3383C24.9845 12.7577 25.8429 13.3301 26.8039 13.5704C27.2912 13.6922 27.1451 13.3344 27.1451 12.9401C27.1451 12.5405 27.0598 12.1732 27.0598 11.7838C27.0598 11.5249 27.4987 11.3094 27.638 11.0588C27.769 10.8228 27.9577 10.582 28.1308 10.3764C28.3223 10.149 28.2772 9.74156 28.6426 9.60868C29.0193 9.47171 29.3603 9.21377 29.7325 9.05423C30.0119 8.93452 30.3773 8.79204 30.6329 8.62773C31.2187 8.25114 31.725 8.04788 32.3484 7.75103C32.9954 7.44296 33.7895 7.3135 34.4809 7.15393C34.9828 7.03811 35.4909 7.06083 35.9974 6.89803C36.422 6.76155 36.8557 6.79378 37.2958 6.79378C37.9641 6.79378 37.4709 6.79944 37.2958 6.58053C37.1938 6.45307 36.4172 6.5193 36.277 6.54736C34.8518 6.83239 35.3247 8.92839 34.6326 9.90249C34.5077 10.0782 34.3994 10.4477 34.1871 10.528C33.7952 10.6763 33.4898 10.8776 33.0782 10.9924C32.8284 11.0622 31.7779 11.3672 31.7513 10.8882C31.7059 10.07 32.9864 9.36078 33.6374 8.96419C34.032 8.72379 34.237 8.626 34.3151 8.19649C34.3581 7.95991 34.6689 7.40387 34.4477 7.30558C33.8858 7.05581 35.0309 7.38453 35.1538 7.42405C35.751 7.61599 36.0929 7.80868 36.5376 8.25336C37.1769 8.89267 37.5882 9.58321 37.8929 10.438C38.1047 11.0321 38.3204 11.6392 38.4284 12.2625C38.4658 12.4782 38.49 13.1354 38.49 12.9164C38.49 12.0375 37.1785 12.4716 36.6798 12.1866C36.3323 11.9881 36.2257 11.1865 36.0637 10.8029C35.7669 10.0999 35.3745 9.42041 35.0496 8.72725C34.9599 8.5359 34.7478 8.35559 34.7368 8.15858C34.7237 7.92338 34.3902 7.06822 34.225 6.96912C34.137 6.91629 34.067 6.60896 34.1492 6.67057C34.381 6.84443 34.6371 6.9972 34.9169 7.09233C35.9998 7.46053 37.172 7.88514 38.1867 8.41922C38.8082 8.74633 39.5183 9.0838 40.0302 9.49968C40.7807 10.1095 41.3501 11.0202 42.1769 11.5516C42.2594 11.6047 42.4874 11.487 42.556 11.4663C42.9716 11.3411 43.3929 11.2763 43.826 11.2483C44.3208 11.2164 44.8185 11.2294 45.314 11.2294C45.6836 11.2294 46.0533 11.2294 46.4229 11.2294C46.6637 11.2294 47.3004 11.2973 47.2759 10.9545C47.2462 10.5388 46.9372 9.63305 46.6788 9.31013C45.7171 8.10796 44.3632 7.26848 42.8403 6.89803C42.6504 6.85184 40.9543 6.22007 40.85 6.68952C40.8154 6.84501 41.6945 7.3864 41.8641 7.47618C42.0422 7.57046 42.1843 7.65187 42.3475 7.76999C42.6358 7.9788 42.8079 8.23473 43.0536 8.44765C43.3763 8.72737 42.3629 8.32594 42.2764 8.28179C41.4527 7.86155 40.5744 7.64006 39.6605 7.51883C38.6042 7.37871 37.5864 7.25287 36.5613 7.00229C36.3169 6.94256 33.9844 6.22338 33.9739 6.28672C33.7478 7.64273 32.8274 8.79803 32.6422 10.1868C32.3008 12.7476 32.5763 15.3133 33.0213 17.8354C33.3186 19.5198 33.6084 21.1801 33.6279 22.8965C33.646 24.4814 33.4802 26.282 33.9312 27.825C34.0267 28.1515 34.2592 28.4289 34.3861 28.7538C34.5571 29.1912 34.9517 30.5452 34.8032 30.0996C34.6411 29.6136 34.6305 29.044 34.5852 28.5358C34.3569 25.9773 34.2971 23.297 34.5283 20.7403C34.7361 18.4425 35.1069 16.178 37.2911 14.9494C37.6436 14.7511 37.9678 15.1294 38.2057 15.3333C38.8682 15.9011 39.223 16.4723 39.67 17.2099C39.9083 17.6031 40.1764 17.9757 39.9591 18.4278C39.4303 19.5275 38.6096 20.3387 37.6228 21.0436C37.3305 21.2524 37.039 21.4337 36.675 21.4606C36.5108 21.4728 36.366 21.4688 36.2248 21.5696C35.9379 21.7746 35.6428 22.0143 35.3813 22.252C34.8417 22.7426 34.6774 23.5085 34.1776 24.0339C33.9549 24.268 33.7708 24.1343 33.5331 24.0244C32.7183 23.6475 32.3256 23.17 31.7513 22.5079C31.0943 21.7505 30.5404 20.8609 29.9979 20.0153C29.6486 19.4707 29.5375 18.8291 29.2397 18.2761C29.1451 18.1005 29.0821 17.9276 28.9791 17.7454C28.7665 17.3694 28.5497 17.0827 28.3156 16.7265C27.9875 16.2272 27.7164 15.5401 27.0219 15.4138C26.9751 15.4053 26.6932 15.416 26.8039 15.4043C27.7301 15.3068 28.588 14.8852 29.5098 14.793C29.7907 14.7649 31.6486 15.1059 31.4575 15.5323C31.4134 15.6306 30.2439 16.0692 30.7656 16.2431C31.4381 16.4673 32.1757 16.5545 32.8602 16.7454C33.8992 17.0352 34.9272 17.3621 35.9594 17.6743C36.528 17.8462 37.0819 18.0522 37.6465 18.2335C37.789 18.2792 38.1778 18.413 38.0919 18.2903C37.8777 17.9842 37.2118 17.8127 36.8883 17.7311C34.0817 17.0238 31.5508 15.8287 29.0975 14.2954C28.0896 13.6655 27.0895 13.0163 26.1262 12.3193C25.6666 11.9867 25.2312 11.5798 24.7378 11.2957C24.477 11.1456 24.2274 10.964 23.9511 10.8455C23.5479 10.6727 23.1164 10.59 22.7095 10.4143C22.5156 10.3305 21.3493 9.63631 22.0271 10.1205" stroke="#020403" stroke-width="4" stroke-linecap="round"/>
    <path d="M39.2578 5.42896C38.5222 5.42896 37.7931 5.50691 37.059 5.51426C36.436 5.52048 35.8971 5.65052 35.2913 5.68959C34.7755 5.72288 34.2954 5.9836 33.7986 6.11136C33.1115 6.28803 32.4832 6.4056 31.7656 6.44782C30.9248 6.49727 30.2292 6.52213 29.5241 7.01174C28.9292 7.4249 28.2868 7.89396 27.657 8.24386C27.4214 8.37474 26.6395 8.74209 26.5481 9.01629C26.4766 9.23079 26.2125 9.33178 26.1263 9.53283C26.0581 9.69216 26.0397 9.7285 26.1785 9.5897C26.4427 9.32549 26.7042 9.05905 26.9935 8.822C28.3605 7.70229 29.9335 7.1201 31.5997 6.62316C32.419 6.3788 32.417 5.88461 31.5808 5.70381C31.4494 5.67539 31.1174 5.62572 31.0737 5.82228C31.0315 6.0122 31.2197 6.10441 31.3533 6.18718C32.0372 6.61091 32.5763 6.98784 33.1162 7.56146" stroke="#020403" stroke-linecap="round"/>
    <path d="M41.902 16.0916C41.4953 16.0916 40.9881 16.323 40.7078 16.6034" stroke="#020403" stroke-linecap="round"/>
    <path d="M2.55127 2.31226C2.59121 2.3522 2.63491 2.3882 2.6794 2.42299C2.76045 2.48635 2.8695 2.56122 2.96255 2.60332C3.03477 2.63599 3.09484 2.6961 3.15633 2.74569C3.25759 2.82735 3.36403 2.89656 3.45926 2.98613C3.56939 3.08972 3.6903 3.17326 3.79778 3.28194C3.87816 3.36321 3.9874 3.44634 4.04534 3.54532C4.17328 3.76388 4.33485 3.97648 4.41549 4.2184C4.45714 4.34334 4.48704 4.47247 4.53176 4.59647C4.58962 4.75688 4.67941 4.91076 4.76588 5.05679C4.80969 5.13078 4.85583 5.20256 4.90192 5.27508C4.92229 5.30713 4.92805 5.3558 4.94937 5.38423C4.95877 5.39676 4.92469 5.36485 4.91141 5.35655C4.83234 5.30713 4.76177 5.243 4.69628 5.17701C4.35046 4.82859 4.11048 4.35384 3.8832 3.92259C3.80512 3.77445 3.7191 3.61124 3.54863 3.55797C3.50425 3.5441 3.52094 3.50492 3.51067 3.46385C3.47704 3.32935 3.48462 3.23923 3.51937 3.10319C3.53477 3.04289 3.54913 2.90492 3.62377 2.88489C3.70759 2.8624 3.8156 2.89338 3.89348 2.91969C4.06699 2.97831 4.24692 3.03068 4.40679 3.12138C4.67645 3.27436 4.93567 3.44498 5.19614 3.61255C5.29982 3.67924 5.41904 3.74925 5.53466 3.7913C5.57872 3.80732 5.6523 3.79288 5.69759 3.79288C5.7904 3.79288 5.8832 3.79288 5.976 3.79288C6.04625 3.79288 6.05888 3.75968 6.02109 3.69164C5.94727 3.55876 5.74335 3.44838 5.59794 3.42905C5.5273 3.41966 5.44705 3.41656 5.37648 3.42905C5.29831 3.44289 5.232 3.49161 5.15343 3.50498C5.11528 3.51147 5.00003 3.48593 4.97943 3.52713C4.95485 3.57629 4.95962 3.64698 4.95728 3.69955C4.94753 3.91899 4.98474 4.12478 5.06327 4.33071C5.12379 4.48944 5.20627 4.64488 5.30055 4.78629C5.34573 4.85407 5.37018 4.87279 5.44766 4.87566C5.82305 4.88957 6.12696 5.20304 6.38096 5.44434" stroke="#020403" stroke-linecap="round"/>
    <path d="M7.47636 8.29597C7.37446 8.41244 8.07819 8.67587 8.18567 8.7123C8.44614 8.80059 8.72513 9.03731 8.94124 9.20059C9.22139 9.41227 9.55771 9.56149 9.84586 9.76598C10.0316 9.89781 10.2289 10.0134 10.4395 10.1001C10.6491 10.1864 10.7876 10.3329 10.9843 10.4444C11.6472 10.8201 12.3429 11.0959 13.0275 11.421C13.3329 11.5661 13.6424 11.5992 13.9269 11.8014C14.2567 12.0357 14.6413 12.1754 14.9703 12.4105C15.5233 12.8054 16.145 13.0993 16.7025 13.4975C17.2033 13.8553 17.8328 14.0927 18.3832 14.361C18.8235 14.5757 19.2663 14.8538 19.6913 15.1038C20.2151 15.4119 20.6582 15.8235 21.2025 16.1086C21.4311 16.2284 21.6118 16.4115 21.8424 16.5301C22.0396 16.6315 22.2521 16.7044 22.454 16.7974C22.6285 16.8777 22.7566 17.0091 22.9166 17.1109C23.1107 17.2344 23.3426 17.3059 23.5488 17.409C23.9027 17.5859 24.1783 17.8529 24.5177 18.0541C24.8765 18.2667 25.2426 18.4869 25.6099 18.6837C25.762 18.7652 25.8752 18.9303 26.0314 18.9972C26.2814 19.1044 26.5244 19.1784 26.7715 19.3056C26.9861 19.4161 27.28 19.4887 27.4603 19.65C27.5361 19.7179 27.7499 19.9637 27.8663 19.9404C27.908 19.9321 27.2603 19.262 27.2033 19.208C26.3294 18.38 25.6991 17.2666 24.988 16.3039C24.4883 15.6274 24.0237 14.9271 23.5128 14.2583C23.3386 14.0301 23.1618 13.8044 23.004 13.5644C22.9723 13.5162 22.9445 13.442 22.8806 13.4307C22.7228 13.4029 23.1522 13.6013 23.2918 13.68C24.1574 14.1679 25.0117 14.6709 25.8721 15.168C26.0843 15.2906 26.3026 15.4097 26.5068 15.5458C26.5104 15.5481 26.6382 15.6701 26.6482 15.6435C26.7061 15.4891 25.9996 15.2745 25.908 15.2323C25.3997 14.9976 24.8577 14.8469 24.3558 14.5975C24.0296 14.4354 23.74 14.2116 23.4203 14.0372C23.246 13.9422 23.1233 13.8217 23.3587 14.0321C23.9645 14.5739 24.6774 14.9862 25.2501 15.5638C25.5666 15.8829 25.8402 16.2351 26.0982 16.602C26.1425 16.665 26.6147 17.2248 26.5737 17.3396C26.5049 17.5321 25.2454 16.9414 25.173 16.9002C24.0277 16.2479 23.0136 15.4122 22.0069 14.5692C21.5178 14.1597 21.0354 13.7368 20.5291 13.3485C20.3766 13.2315 20.1626 13.05 19.9637 13.0041C19.8935 12.9879 20.0585 13.114 20.1154 13.1583C20.5134 13.4686 20.9303 13.7487 21.3181 14.0732C22.169 14.7852 22.9805 15.5232 23.7698 16.3014C24.1767 16.7025 24.6001 17.0865 25.0034 17.4912C25.2262 17.7148 25.426 18.0267 25.6716 18.2263C25.832 18.3566 25.3728 17.9368 25.1987 17.8253C24.2707 17.2312 23.542 16.4631 22.8755 15.5818C22.699 15.3484 20.4471 12.1013 20.763 11.9247C20.9085 11.8434 21.3359 11.9634 21.4646 11.9941C21.9274 12.1045 22.3776 12.2981 22.7444 12.6058C23.4966 13.2366 23.936 14.269 24.3969 15.114C24.4347 15.1834 24.5781 15.3621 24.51 15.3222C24.2366 15.1622 23.969 14.9803 23.703 14.8082C23.1035 14.4204 22.4718 13.9577 22.03 13.387C21.9263 13.2531 22.0955 13.3963 22.0994 13.3999C22.32 13.6002 22.5067 13.84 22.6905 14.0732C23.1893 14.7062 23.5767 15.4093 24.0423 16.0649C24.4513 16.6409 23.9494 15.8548 23.8624 15.7026C23.1251 14.4124 22.5346 13.0731 22.0428 11.6703C21.7353 10.7931 21.5178 9.8937 21.3284 8.98472C21.2842 8.77271 21.2079 8.60852 21.1125 8.41419C20.9812 8.14659 20.8876 8.18504 20.6705 7.98243C20.3885 7.71926 20.0284 7.50955 19.6939 7.3271C18.9742 6.93455 18.1162 7.42558 17.3964 7.54554C16.8305 7.63985 16.2455 7.60208 15.6745 7.60208C14.7202 7.60208 13.7659 7.60208 12.8116 7.60208C12.5746 7.60208 12.1661 7.52145 11.9378 7.62521C11.7598 7.70614 11.6384 7.8668 11.4726 7.9773C11.1005 8.22536 10.7647 8.54371 10.4215 8.83052C10.3305 8.90664 10.2224 8.95452 10.2082 9.08237C10.1632 9.48789 10.5057 9.69368 10.7351 9.97158C10.878 10.1448 10.997 10.3527 11.1977 10.465C11.3019 10.5234 11.4155 10.5097 11.5215 10.5627C11.6634 10.6336 11.7762 10.7274 11.8915 10.8351C11.9702 10.9085 12.0666 10.868 12.1562 10.9173C12.4196 11.0622 12.6934 11.2057 12.9452 11.3696C13.2768 11.5855 13.5564 11.8587 13.8807 12.0789C14.1139 12.2374 14.3609 12.3919 14.6003 12.5415C14.8321 12.6864 15.0961 12.7152 15.3301 12.8396C15.6067 12.9868 15.9557 12.9191 16.2656 12.9579C16.6658 13.0079 17.0624 13.0815 17.4632 13.1275C17.9282 13.1808 18.4862 13.1949 18.9024 13.4359C20.0321 14.0899 23.2739 16.2847 22.1354 15.646C21.5896 15.3399 21.0295 15.0238 20.5266 14.6515C19.8631 14.1602 19.389 13.504 18.8304 12.9065C18.7701 12.842 18.2826 12.3242 18.355 12.3616C19.1941 12.7957 20.0081 13.2603 20.7861 13.7982C21.7166 14.4415 22.5586 15.1969 23.4717 15.8619C23.5132 15.8921 24.2571 16.2982 24.2376 16.3373C24.2082 16.396 24.1176 16.2844 24.0577 16.2577C23.7837 16.1354 23.5075 16.0395 23.2199 15.9544C22.6825 15.7955 22.1638 15.7171 21.6162 15.6152C21.5376 15.6005 21.048 15.5043 21.3875 15.5869C21.7375 15.6721 22.0438 15.8673 22.3512 16.0469C22.4473 16.1031 22.6895 16.2032 22.4592 16.0881C22.0492 15.8831 21.6556 15.7082 21.2693 15.4507C20.2742 14.7873 19.3572 13.9826 18.3987 13.2663C17.7092 12.751 17.018 12.2351 16.335 11.7114C16.2415 11.6397 16.2969 11.6638 16.3632 11.6934C16.5949 11.7971 16.8153 11.9225 17.0263 12.0635C18.0094 12.7209 18.8752 13.5247 19.6631 14.4022C20.2957 15.1068 20.9331 15.7724 21.7344 16.2859C22.2691 16.6286 22.7906 17.0004 23.3381 17.3216C23.3516 17.3296 23.9994 17.7031 23.7724 17.5452C23.2892 17.2091 22.7467 16.9533 22.2561 16.6252C20.675 15.5674 19.0756 14.5394 17.4837 13.4975C16.9292 13.1346 16.37 12.7768 15.839 12.3796C15.6721 12.2548 15.1609 11.9249 15.3635 11.9736C16.0427 12.1366 16.67 12.5598 17.345 12.7625C18.0207 12.9655 18.711 13.0569 19.4112 13.1069" stroke="#020403" stroke-linecap="round"/>
    <path d="M34.8264 31.4425C34.2925 31.3169 34.1709 29.7358 33.7374 29.7358C33.5171 29.7358 33.0181 30.6314 32.9414 30.8057C32.7899 31.1501 32.7488 31.5794 32.5911 31.8947C32.0169 33.0432 32.0035 34.4251 31.1582 35.4928C30.7338 36.029 30.4266 34.4772 30.4768 34.251C30.5353 33.9876 31.2186 33.3644 31.4321 33.1747C31.5698 33.0523 31.728 32.4736 31.7951 32.3086C32.0038 31.7958 32.1831 31.2793 32.4128 30.7738C32.5043 30.5725 32.7393 30.2927 32.7631 30.0669C32.818 29.5451 33.7327 29.575 34.1387 29.4938" stroke="#020403" stroke-linecap="round"/>
    <path d="M30.5249 34.8434C31.0932 34.7323 31.7638 34.3889 32.1541 33.9987" stroke="#020403" stroke-linecap="round"/>
    <path d="M47.4023 11.7828C47.4424 11.6761 48.3443 11.5307 48.4859 11.4818C49.3021 11.2004 50.0862 10.8179 50.8862 10.4961C51.4033 10.2881 52.1198 10.1192 52.5492 9.75116C52.6459 9.66828 52.7434 9.60881 52.8276 9.51413C52.9235 9.40619 53.242 9.45751 53.2828 9.31473C53.3089 9.22333 52.5175 9.32332 52.41 9.34483C52.1305 9.40072 51.876 9.53935 51.6011 9.61571C51.1899 9.72992 50.7087 9.82252 50.3445 10.0446C50.1596 10.1574 50.3206 10.0975 50.4874 10.086C50.758 10.0673 51.0388 10.0337 51.2775 9.90165C51.5881 9.72984 52.377 9.55818 52.4852 9.17928C52.5964 8.79 53.3985 8.55292 53.7305 8.37415C54.1234 8.16262 54.5445 8.01296 54.9495 7.82109C55.6029 7.5116 56.3876 7.35525 56.9812 6.95952C57.2899 6.75369 57.6845 6.78493 58.0346 6.68864C58.6473 6.52014 59.223 6.26953 59.8518 6.12805C60.2728 6.03333 60.6622 5.81886 61.0896 5.72172C61.6 5.60574 62.1008 5.47645 62.6096 5.34925C63.4806 5.13151 64.3316 4.81894 65.183 4.55165C65.9129 4.32249 66.6107 4.0227 67.3501 3.80671C68.0301 3.60805 68.7492 3.2006 69.4495 3.11821C70.2442 3.02471 71.1081 2.76016 71.8649 2.4899C71.9787 2.44925 72.0433 2.36951 72.1696 2.36951C72.265 2.36951 72.0116 2.48927 71.9175 2.50495C71.6584 2.54815 71.282 2.75714 71.1086 2.94138C70.9979 3.05906 70.9266 3.13867 70.834 3.27246C70.784 3.34471 70.7146 3.53119 70.6609 3.57721C70.5492 3.67296 70.3864 3.79832 70.3562 3.96473C70.3167 4.18174 69.9088 4.446 69.7467 4.60808C69.4713 4.88344 69.2628 5.28309 68.9378 5.49975C68.724 5.64229 68.5983 5.86615 68.3584 5.99637C68.1645 6.10162 67.9795 6.23929 67.7978 6.36508C67.738 6.4065 67.6691 6.53777 67.6059 6.56072C67.5352 6.58645 67.45 6.55134 67.3877 6.60587C67.1403 6.82234 66.8947 6.96927 66.6052 7.17774C66.4796 7.26815 66.0085 7.41539 65.958 7.51634" stroke="#020403" stroke-linecap="round"/>
    <path d="M69.8181 5.41691C69.5828 5.54148 69.395 5.79955 69.1748 5.96621C68.912 6.16503 68.6955 6.41876 68.411 6.59075C68.0191 6.82773 67.6983 7.17162 67.3801 7.51628C67.0986 7.82127 66.8847 8.16034 66.5675 8.43428C66.3429 8.62822 65.9611 8.90382 65.6946 9.02873C65.3977 9.16793 65.2046 9.37778 64.9384 9.54416C64.8554 9.59602 64.7637 9.63487 64.6788 9.68337C64.6011 9.72777 64.6179 9.84388 64.6713 9.77366C64.9601 9.39359 65.2682 9.21867 65.6645 8.95724C66.5686 8.36097 66.949 7.38712 67.6698 6.62837C68.2796 5.98651 69.2051 5.40476 70.0213 5.0783C70.179 5.01523 69.63 4.73078 69.5472 4.60425C69.3001 4.22649 69.3465 4.23528 69.5623 3.92704C69.6378 3.81909 70.0125 3.66559 69.7353 3.79159C69.2424 4.01564 68.7728 4.27792 68.2756 4.49891C67.6367 4.78284 66.9543 4.94923 66.3794 5.34919C65.5614 5.91819 64.4173 6.07554 63.4786 6.32739C62.1018 6.69679 60.8101 7.30293 59.4341 7.68182C58.7075 7.8819 58.0319 8.18553 57.3348 8.46438C56.3674 8.85131 55.3789 9.13305 54.3776 9.41248C52.6342 9.899 50.8731 10.2488 49.1706 10.8873C49.0347 10.9383 48.4567 11.1732 48.9335 11.1732C49.422 11.1732 49.819 10.8472 50.2165 10.5976C50.6099 10.3506 50.9773 10.0506 51.3979 9.84891C51.9317 9.59296 52.5578 9.55249 53.136 9.4802C53.198 9.47246 53.4781 9.41536 53.5198 9.35981C53.6398 9.19977 53.1713 9.55644 53.0006 9.66079C52.407 10.0238 51.8179 10.3909 51.2474 10.7895C50.9604 10.99 50.6798 11.1955 50.3707 11.3614C50.3335 11.3813 50.0552 11.5065 50.0961 11.4968C50.7463 11.3428 51.3112 11.0534 51.9283 10.8045C52.4618 10.5894 52.9782 10.4223 53.5348 10.2778C53.6767 10.241 54.3701 10.0859 53.9713 9.88653C53.5289 9.66533 52.991 9.74236 52.5265 9.54792C52.4697 9.52411 51.8393 9.2327 52.0751 9.15665C52.3745 9.06007 52.6921 9.06925 52.9818 8.93843C53.2055 8.8374 53.4812 8.74115 53.7154 8.68259C54.3104 8.53385 54.6587 8.13528 55.2429 7.95271C55.7323 7.79979 56.1735 7.51832 56.6651 7.35074C57.1005 7.20232 57.5211 7.00558 57.9631 6.87669C58.3708 6.75777 58.7943 6.61961 59.1934 6.46283C59.5768 6.31218 59.9522 6.27342 60.3371 6.1468C60.4644 6.10491 61.3764 6.00711 61.4094 5.92482C61.4504 5.82219 61.1878 5.89116 61.0783 5.90601C60.5101 5.98305 59.9488 6.20306 59.4116 6.39511C58.3702 6.76739 57.3561 7.20953 56.3754 7.71568C55.3093 8.26594 54.2531 8.74059 53.3016 9.48773C53.2442 9.53277 52.3947 10.1822 52.8576 9.93921C53.6778 9.50863 54.5215 8.99538 55.401 8.70517C56.1103 8.47107 56.7949 8.24148 57.4627 7.90756C58.2437 7.51706 59.0918 7.33385 59.912 7.04223C60.4346 6.85641 60.9527 6.59365 61.4545 6.35749C61.9811 6.10968 62.4235 5.86613 63.0008 5.70285C63.5416 5.54989 64.0674 5.35996 64.6111 5.20998C65.4709 4.97279 66.3062 4.49363 67.192 4.34842C68.1308 4.19451 69.1112 3.61239 70.074 3.65615C70.0857 3.65669 69.5431 3.89872 69.4381 3.93456C68.8161 4.14695 68.3547 4.57626 67.8241 4.94286C66.7955 5.65355 65.9649 6.57042 65.0099 7.36955C63.9416 8.26344 62.8706 8.977 61.6238 9.59307C61.4699 9.6691 60.9964 9.8691 61.146 9.78495C61.9513 9.33198 62.7235 8.82666 63.5426 8.39666C64.4542 7.91806 65.3887 7.47419 66.3267 7.04975C66.76 6.85369 67.2231 6.70492 67.6021 6.41016C67.9461 6.14261 68.2246 5.8742 68.5013 5.51849C68.5668 5.4343 68.855 5.25273 68.855 5.14602C68.855 5.12226 68.2947 5.45202 68.2906 5.45453C68.0509 5.60094 67.784 5.70908 67.5494 5.86086C67.214 6.0779 66.9559 6.39765 66.6352 6.6359C66.0596 7.06346 65.3048 7.3225 64.6261 7.53133C62.492 8.18799 60.3275 8.75612 58.2678 9.61565C58.106 9.68317 57.333 9.95947 57.4025 9.93168C58.9542 9.311 60.3022 8.23074 61.842 7.56895C62.8811 7.12238 64.0088 6.66971 65.1152 6.40264C65.7532 6.24863 65.1573 6.27982 64.8293 6.32739C63.1999 6.56371 61.6423 7.61674 60.4838 8.73527C60.1318 9.07519 59.7037 9.52074 59.4943 9.9693C59.3123 10.3594 59.337 10.3189 59.7765 10.1574C60.8121 9.777 61.8798 9.53259 62.8879 9.07387C63.7888 8.66396 64.7301 8.36132 65.6194 7.92261C65.6949 7.88535 66.333 7.64211 65.9768 7.76083C65.5339 7.90845 65.0991 8.07837 64.6562 8.22359C64.0728 8.41487 63.508 8.83039 62.9745 9.1416C62.391 9.48195 61.7749 9.72763 61.2325 10.1424C60.8192 10.4584 60.4865 10.8699 60.0813 11.1883C59.9957 11.2556 60.2788 11.0966 60.3785 11.0528C60.9779 10.7895 61.5657 10.5002 62.1731 10.2552C62.9364 9.94738 63.7811 9.80315 64.5208 9.45011C64.6268 9.39951 65.1997 9.18211 64.7917 9.20932C64.488 9.22956 64.2667 9.46123 63.9903 9.54416C63.549 9.67655 63.0674 10.0414 62.76 10.3907C62.12 11.1179 61.0897 11.505 60.2543 11.9558C59.8918 12.1515 59.4716 12.2594 59.0993 12.4524C59.0521 12.4769 58.8486 12.57 59.0278 12.4976C59.3706 12.359 59.7115 12.2189 60.0587 12.0912C60.7368 11.8419 61.417 11.5745 62.0979 11.3388C62.2918 11.2716 62.9031 11.2013 63.0347 11.0039C63.2294 10.7119 63.2486 10.4588 63.6178 10.2778C63.619 10.2773 64.0716 10.0034 63.8774 10.0333C63.6918 10.0618 63.4789 10.2213 63.3244 10.3117C62.7555 10.6442 62.1818 10.9707 61.6163 11.3087C60.5541 11.9436 59.4703 12.6035 58.3732 13.1673C57.139 13.8015 56.0075 14.6173 54.7614 15.2215C54.0425 15.57 53.3866 16.1729 52.6131 16.3276C52.2067 16.4089 51.784 16.6757 51.3903 16.8167C51.0209 16.949 51.9589 16.3498 52.06 16.2599C52.6957 15.6948 53.6025 15.5505 54.3174 15.086C55.111 14.5704 55.6355 13.7347 56.3792 13.1522C56.5786 12.996 56.8458 12.8766 57.0263 12.7007C57.0422 12.6853 57.1691 12.4435 57.1053 12.5427C56.8451 12.9474 56.3695 13.1868 56.1534 13.6263C56.0373 13.8624 55.9572 14.0708 55.7697 14.2583C55.4055 14.6225 56.5532 13.9211 56.4055 13.9649C55.5429 14.2204 54.6882 14.5686 53.8283 14.8453C53.3815 14.989 52.7945 15.1893 52.3911 15.4397C51.995 15.6856 51.651 16.0327 51.3 16.3351C50.7365 16.8207 50.021 17.1615 49.3173 17.3961C49.038 17.4892 48.7901 17.6696 48.5084 17.7723C47.9782 17.9656 47.4394 18.1336 46.9094 18.3216C45.8421 18.7004 44.5623 18.8543 43.7378 19.7287C43.2361 20.2609 42.6316 20.6997 42.0636 21.1584C41.9015 21.2894 41.6329 21.635 41.5782 21.8356C41.3393 22.7116 41.5125 23.9536 41.5105 24.8154C41.5084 25.748 41.5087 27.2581 41.4955 28.2165C41.4906 28.5662 41.4948 29.6024 41.4127 29.2624C41.1367 28.1188 41.5114 26.7168 41.6008 25.5754C41.7364 23.8437 41.7814 22.0975 41.7814 20.3608C41.7814 19.8693 41.7874 19.3774 41.7814 18.886C41.779 18.6887 41.7328 18.6753 41.5745 18.8032C41.002 19.2656 40.8995 20.2615 40.7355 20.9176C40.4758 21.9565 40.1079 23.0236 40.0884 24.1005C40.08 24.5606 40.0623 25.0182 40.0357 25.4775C40.0041 26.0222 40.1426 25.646 40.3705 25.3421C41.3997 23.9699 42.4874 22.653 43.5497 21.3089C43.7146 21.1002 43.8864 20.8875 44.0388 20.6693C44.0454 20.6598 44.2694 20.2502 44.257 20.436C44.2451 20.6145 44.0625 20.9729 44.0275 21.0531C43.5294 22.1955 43.6587 21.8488 43.0869 23.2503C42.1659 25.5078 41.3004 27.7932 40.5474 30.1127C40.4961 30.2705 40.3326 30.7398 40.3743 30.5792C40.4579 30.2578 40.7461 30.0235 40.901 29.7365C42.7496 26.3112 42.6348 21.7952 45.7393 19.1493C46.5232 18.4813 47.3261 17.7134 48.1886 17.1553C48.6124 16.8811 49.0713 16.6094 49.5619 16.4706C49.8544 16.3878 50.1236 16.2922 50.4046 16.1771C50.4599 16.1545 50.8964 15.9826 50.6529 16.132C48.8076 17.2643 47.1822 18.8401 45.5287 20.2291C45.055 20.627 44.5227 20.9486 44.2344 21.5045C43.9452 22.0623 43.5355 22.5639 43.1584 23.0621C43.1569 23.0642 42.8261 23.5288 42.8499 23.5136C43.1718 23.3088 43.484 23.057 43.7829 22.8213C44.6114 22.1681 45.3552 21.4513 46.2209 20.8424C47.0999 20.2242 48.0696 19.7057 48.9975 19.1644C49.3781 18.9424 49.8688 18.6083 50.1111 18.2313C50.3534 17.8545 49.7235 18.127 49.5957 18.1975C48.7008 18.6906 47.9168 19.5371 47.2217 20.2705C46.966 20.5403 46.707 20.8199 46.4692 21.1057C46.2941 21.3162 46.165 21.6335 45.9463 21.8018C45.8585 21.8693 45.5129 22.2002 45.6641 21.9146C46.015 21.2518 46.6362 20.6928 47.1013 20.105C47.6287 19.4384 48.0586 18.7246 48.7003 18.1523C49.5339 17.4088 50.6452 17.0532 51.6988 16.7415C51.8198 16.7057 51.9668 16.6292 51.744 16.6888C51.235 16.825 50.738 17.0725 50.2579 17.2832C48.4766 18.0652 46.6595 18.7884 44.9944 19.804C44.1759 20.3032 43.2557 20.7902 42.5038 21.3917C42.2671 21.581 42.2801 22.2237 42.2404 22.4752C42.1467 23.0689 41.7469 24.7964 42.0297 24.2661C42.4365 23.5034 42.1044 22.5146 42.3608 21.7002C42.4546 21.4021 42.6401 21.3134 42.9327 21.2337C43.2445 21.1486 43.856 20.937 44.1817 21.0681C44.7498 21.2968 44.941 22.526 44.8891 23.0584C44.8387 23.5741 44.5014 23.75 44.0614 23.9275C42.4759 24.5668 42.2008 21.8414 41.0703 21.339C40.7613 21.2017 40.2993 21.9283 40.1862 22.0915C39.7738 22.6863 39.2313 23.7336 39.2907 24.4918C39.3167 24.8221 39.4692 25.1134 39.6181 25.4023C39.9361 26.0196 40.143 26.6623 40.2464 27.3512C40.4956 29.0129 40.4801 30.7747 40.4119 32.4529C40.4103 32.4922 40.4049 33.3523 40.3442 33.3633C40.2693 33.377 40.2914 33.2198 40.2765 33.1451C40.1693 32.6091 40.1294 32.0564 40.0959 31.5123C39.9077 28.4607 40.0185 25.392 40.2464 22.3473C40.2817 21.8751 40.2915 21.4057 40.2915 20.9327C40.2915 20.7207 40.2915 20.9002 40.2915 20.9891C40.2915 21.6098 40.3932 22.1806 40.5474 22.7837C41.0032 24.5667 41.3899 26.348 41.6949 28.1638C41.8685 29.1977 42.2064 32.3244 42.1275 31.279C42.0882 30.758 41.8731 30.2309 41.8115 29.7064C41.5951 27.8629 41.6633 25.9939 41.6083 24.1419C41.5867 23.4119 41.5624 22.6749 41.4804 21.9485C41.4255 21.462 41.5226 22.2734 41.5256 22.2946C41.7734 24.0772 41.8371 25.8804 42.1162 27.6597C42.2651 28.6087 42.4516 29.5129 42.6844 30.4438C42.7463 30.6916 42.7972 30.9622 42.7972 31.2188C42.7972 31.6669 42.6526 30.785 42.6317 30.6996C42.1578 28.7675 41.8616 26.7744 41.6309 24.8003C41.5229 23.8766 41.5301 22.9406 41.4089 22.02C41.3926 21.896 41.4332 21.1891 41.3073 21.5196C41.1285 21.989 41.1911 22.6501 41.1757 23.1449C41.1647 23.4956 41.1719 23.8475 41.1719 24.1984C41.1719 26.1539 41.2065 28.1128 41.1569 30.0676C41.0664 33.6288 41.5206 37.1195 42.1125 40.6284C42.1396 40.7893 42.2546 41.2569 42.1764 41.1137C41.9152 40.6348 41.6765 40.1418 41.4654 39.6389C40.9231 38.3474 40.4629 37.0193 40.0282 35.6884C39.8102 35.0212 39.7125 34.6845 39.5165 34.0481C39.4671 33.8877 39.3933 33.4127 39.3472 33.574C39.2963 33.752 39.4046 34.1236 39.4262 34.2738C39.6347 35.7218 39.7827 37.182 40.0808 38.6155C40.2604 39.4789 40.4664 40.372 40.7881 41.1965C40.9455 41.5997 40.8973 40.9865 40.8935 40.9105C40.7932 38.905 40.2539 36.8633 39.7798 34.9209C39.7208 34.6788 39.6369 34.6344 39.7573 34.8532C40.0836 35.4466 40.4006 35.9945 40.6414 36.6365C41.0287 37.6692 41.3137 38.7304 41.5895 39.7969C41.6267 39.9408 42.034 41.3547 41.8416 40.3688C41.3149 37.6695 41.5116 34.884 40.9311 32.197C40.9086 32.0929 40.8941 31.9846 40.8483 31.8885C40.83 31.85 40.8428 31.9742 40.8483 32.0164C41.0057 33.219 41.2913 34.3878 41.3939 35.6019C41.5413 37.3477 41.6017 39.1067 41.6347 40.8579C41.6457 41.4448 41.8214 43.1626 41.6008 42.6186C41.3589 42.0218 41.1931 41.3988 41.0365 40.7751C40.5267 38.7453 40.1068 36.6923 39.746 34.6312C39.6194 33.908 39.2281 31.7407 39.3735 32.4604C39.6012 33.5868 39.8119 34.7112 39.9943 35.8465C40.3162 37.8504 41.3378 43.8504 41.0891 41.8361C40.9213 40.4764 40.708 39.133 40.6339 37.7615C40.624 37.5793 40.6585 38.1257 40.679 38.307C40.8002 39.3785 41.0547 40.4156 41.3149 41.4598C41.4202 41.8826 41.6911 42.4555 41.6911 42.897C41.6911 43.4336 41.5125 44.0149 41.4277 44.5449C41.3989 44.7251 41.2993 46.2021 41.1343 46.2492C40.8545 46.3292 41.3228 46.1374 41.3901 46.1176C41.895 45.9686 42.3546 45.9821 42.88 45.9821C43.3023 45.9821 43.7299 46.0022 44.1517 45.9821C44.3358 45.9733 44.5082 45.8604 44.7009 45.8429C44.9332 45.8218 45.5167 45.7328 45.698 45.6059C46.0231 45.3783 46.6821 45.3037 47.09 45.2409C47.218 45.2213 46.4208 45.4585 46.2962 45.5081C45.9597 45.6418 45.6731 45.8157 45.3706 45.9972C44.6737 46.4153 45.6144 46.1974 45.8447 46.1853C46.3739 46.1574 46.9031 46.0592 47.4098 45.9144C47.8492 45.7889 48.2695 45.5775 48.7153 45.4403C49.199 45.2915 49.7474 45.1178 50.2014 44.8986C50.5355 44.7373 50.8364 44.528 51.1646 44.3568C51.2983 44.2871 51.607 44.0257 51.7628 44.0257C51.9058 44.0257 51.514 44.1729 51.4129 44.274C51.2033 44.4836 51.022 44.711 50.7959 44.9061C50.6772 45.0085 50.4508 45.3726 50.2805 45.3726C50.0768 45.3726 49.8696 45.3818 49.6672 45.3576C48.4713 45.2145 47.353 44.3007 46.4993 43.5103C44.4948 41.6542 43.0431 39.259 41.7964 36.8548C40.9923 35.304 40.1139 33.7283 39.509 32.0842C39.2906 31.4906 38.8595 29.6431 38.9634 30.267C39.0206 30.6098 39.238 30.988 39.366 31.3054C39.7516 32.2614 40.1365 33.2279 40.6076 34.1459C41.1121 35.1292 41.6885 36.098 42.2554 37.0429" stroke="#020403" stroke-linecap="round"/>
    <path d="M56.7478 22.2796C56.6805 22.4142 55.867 22.4433 55.7057 22.5167C55.5833 22.5723 55.2068 22.7164 55.3332 22.6709C55.7049 22.5371 55.992 22.2703 56.3415 22.0915C56.9023 21.8048 57.4056 21.5989 57.9104 21.23C58.387 20.8816 58.8251 20.5529 59.2573 20.1351C59.4371 19.9613 59.76 19.4465 60.0511 19.4353C60.1635 19.431 60.5188 19.2623 60.6004 19.4052C60.6515 19.4945 60.5738 19.58 60.6757 19.6536C60.8106 19.751 60.8909 19.9151 61.0293 20.0147C61.1146 20.0762 61.5581 20.6816 61.3905 20.7747C61.2121 20.8738 60.7911 20.7725 60.6117 20.7559C60.2501 20.7224 59.7357 20.6277 59.3965 20.7973C59.1033 20.9439 58.8299 21.2817 58.4935 21.3315C58.3186 21.3575 58.0688 21.5357 57.8991 21.61C57.628 21.7285 57.3604 21.8033 57.0864 21.9109C56.6907 22.0664 56.1157 22.4828 55.6981 22.4828C54.9284 22.4828 55.5059 23.3475 55.8298 23.7018C55.9309 23.8124 55.9525 23.9824 56.0405 24.0705C56.1023 24.1323 56.2255 24.2099 56.2663 24.2812C56.3625 24.4496 56.2504 24.562 56.4393 24.7176C56.5913 24.8428 56.5031 24.9701 56.5898 25.1277C56.8127 25.533 56.7878 25.9986 57.0864 26.3655C57.1303 26.4194 57.3866 26.76 57.4551 26.6326C57.6334 26.3016 57.3822 25.4813 57.3536 25.1277C57.3017 24.4878 57.1626 23.8652 57.1542 23.2202C57.149 22.8302 57.4092 22.9889 57.6583 23.1751C58.1958 23.5766 58.4756 24.3035 58.7644 24.8907C58.8842 25.1343 58.9765 25.3751 59.0504 25.6356C59.0873 25.766 59.1181 25.8286 59.1181 25.6507C59.1181 24.9408 59.0422 24.2341 59.0541 23.5212C59.0549 23.475 59.0813 22.2998 59.1933 22.4038C59.9019 23.0618 60.2016 26.091 60.2016 25.124C60.2016 24.5288 60.2215 23.9421 60.2694 23.3481C60.3247 22.6615 60.267 21.9197 60.6042 21.3014C60.7808 20.9777 61.1284 21.6474 61.1685 21.7341C61.4588 22.3604 61.6984 23.0094 61.985 23.6378C62.1782 24.0617 62.4049 24.4877 62.4891 24.9509C62.5652 25.3694 62.5042 24.8744 62.5042 24.7251C62.5042 24.1673 62.467 23.5963 62.5042 23.0396C62.5188 22.8201 62.9399 23.4802 62.9481 23.4986C63.1848 24.0292 63.3238 24.6093 63.4372 25.1766C63.4915 25.4479 63.5495 25.7674 63.5651 26.0495C63.5687 26.1142 63.5701 26.2735 63.5162 26.2376C63.3948 26.1567 63.4321 25.986 63.2491 26.0043C62.9277 26.0365 62.7145 26.5155 62.6396 26.7718C62.2765 28.014 62.0546 29.3144 61.7442 30.5718C61.562 31.3097 61.3944 32.049 61.2325 32.7915C61.185 33.0093 61.2027 33.5426 61.0143 33.4236C60.7285 33.2431 60.7113 32.0926 60.6794 31.8359C60.4546 30.0234 60.4709 28.1208 60.5891 26.3016C60.6409 25.5057 60.7875 24.7237 60.8676 23.9313C60.8849 23.7592 60.9066 23.2533 60.9541 23.4196C61.1182 23.994 61.1491 24.6398 61.161 25.2293C61.1923 26.7771 61.0807 28.3318 60.9842 29.8757C60.9441 30.5179 60.8111 32.4417 60.8111 31.7983C60.8111 30.8637 60.7905 29.9268 60.924 28.9991C61.1028 27.7562 61.2846 26.5136 61.4357 25.2669C61.4992 24.7426 61.8357 25.1399 61.9624 25.4325C62.5223 26.7253 62.4658 28.4337 62.4929 29.8156C62.5043 30.398 62.2066 30.057 61.8232 29.9359C61.4168 29.8076 61.0587 29.8271 60.781 29.4506C60.2823 28.7742 60.0589 27.9689 59.9157 27.1556C59.8264 26.6486 59.7636 26.1179 59.6298 25.6206C59.6259 25.6062 59.5921 25.4276 59.5921 25.5566C59.5921 25.9602 59.511 26.3627 59.4341 26.7568C59.134 28.295 58.8411 29.8712 58.4145 31.3807C58.2941 31.8067 58.1118 31.4041 58.0383 31.17C57.7112 30.1272 57.4643 29.0165 57.3423 27.9306C57.3168 27.7042 57.2555 27.4852 57.2256 27.2609C57.2017 27.0813 57.3507 26.8596 57.3912 26.6815C57.4495 26.4252 57.5707 26.1897 57.6282 25.9366C57.7165 25.5482 58.2845 26.3712 58.3054 26.4107C59.2782 28.2466 59.2535 30.2372 59.2535 32.2799C59.2535 32.7313 59.3182 33.2434 59.246 33.6945C59.2016 33.9717 59.011 34.2859 58.9074 34.5523C58.668 35.1678 58.3762 35.7481 58.0345 36.3131C57.849 36.6198 57.6586 36.9246 57.4852 37.2386C57.4287 37.341 57.3481 37.6482 57.3047 37.5396C57.2225 37.3343 58.3108 36.4377 58.4296 36.283C58.9873 35.5563 59.3133 34.6573 59.7652 33.8638C60.3822 32.7802 60.7365 31.668 61.1573 30.5003C61.5762 29.3378 62.0699 28.2138 62.4665 27.0427C62.5114 26.9103 62.629 26.2883 62.8729 26.358C63.0776 26.4165 63.2839 26.8128 63.3845 26.9901C63.5875 27.3477 63.7183 27.7079 63.7231 28.1263C63.7329 28.9613 63.7231 29.7969 63.7231 30.632C63.7231 30.9777 63.694 31.2906 63.52 31.5951C63.1079 32.3162 62.9789 33.1855 62.6697 33.9503C62.5334 34.2875 62.2798 34.5987 62.1355 34.9398C61.8284 35.6656 61.2414 36.252 60.7434 36.8548C60.2812 37.4143 59.7445 38.0218 59.1858 38.4801C58.9529 38.6712 58.7573 39.0041 58.4823 39.131C58.3751 39.1805 58.3399 39.1977 58.2716 39.3116C58.1887 39.4497 57.9658 39.508 57.8351 39.6126C57.7177 39.7065 57.4033 39.9501 57.7561 39.7443C57.9348 39.6401 57.9844 39.4071 58.1549 39.2778C58.4333 39.0666 58.6168 38.805 58.9525 38.6683C59.0375 38.6337 59.2887 38.3954 59.3476 38.5366C59.3836 38.623 59.2501 38.8177 59.2197 38.909C59.1731 39.0487 58.9826 39.969 58.9826 39.4132C58.9826 38.6362 58.853 37.7246 59.0805 36.9752C59.2206 36.5136 59.3429 35.8343 59.7577 35.538C59.8958 35.4393 60.3513 35.3045 60.1866 35.2634C60.1022 35.2423 59.8965 35.5794 59.8705 35.6509C59.8336 35.7525 60.024 36.1273 60.0624 36.076C60.24 35.8392 60.2174 35.5854 59.9834 35.4703C59.1608 35.0655 58.6462 34.2203 58.185 33.4688C57.9217 33.0397 57.5774 32.7762 57.3987 32.2799C57.3152 32.0478 57.3964 32.1885 57.5078 32.2197C57.6877 32.27 57.6108 31.9088 57.5454 31.8434C57.453 31.751 57.425 32.0184 57.425 32.0428C57.425 32.5716 57.346 33.0499 57.1955 33.559C57.0258 34.1336 56.6536 34.4701 56.2926 34.9361C55.7241 35.6699 55.198 36.4631 54.7764 37.2913C54.6457 37.5479 54.5859 37.8192 54.5807 37.3364C54.5763 36.9158 54.5321 36.4604 54.6597 36.0535C54.8158 35.5559 55.0495 35.0891 55.1865 34.5824C55.336 34.0291 55.5326 33.6879 55.9728 33.3333C56.1989 33.1512 56.4207 32.7088 56.7102 32.7088C56.9228 32.7088 57.2194 32.6768 57.3799 32.848C57.7613 33.2548 57.9172 34.1458 57.9856 34.6614C58.085 35.4109 58.0496 36.1719 57.6207 36.8172C57.2821 37.3265 56.8641 37.8302 56.4092 38.2394C56.0048 38.6031 55.5153 38.8442 55.0849 39.1724C54.8212 39.3735 54.5883 39.6206 54.3061 39.797C53.986 39.997 53.5972 40.0903 53.2451 40.2183C53.1184 40.2644 52.6005 40.4939 52.455 40.3162C52.0744 39.8509 53.5397 38.6258 53.7568 38.4124C54.6706 37.5142 55.5559 36.6577 56.6613 36.0045C56.9972 35.8061 57.3754 35.5821 57.7637 35.5004C57.8469 35.4829 57.9248 35.5349 57.8539 35.6208C57.6215 35.9025 57.1805 36.1226 56.8757 36.298C55.0655 37.3401 52.9517 37.8122 50.8937 38.0287C49.8768 38.1356 48.8533 38.1838 47.8312 38.1942C47.627 38.1963 47.3246 38.2142 47.7108 38.1942C48.9539 38.1299 50.2198 37.4973 51.3715 37.0768C52.1737 36.7839 52.9815 36.5115 53.8057 36.2867C54.0034 36.2328 54.6126 36.1626 54.4077 36.1626C52.8194 36.1626 51.2466 36.2472 49.6897 36.6065C48.8468 36.801 48.1004 37.2461 47.2367 37.2461C46.1964 37.2461 45.3276 36.9948 44.43 36.4297C43.8413 36.059 43.2363 35.6642 42.6768 35.2521C42.0557 34.7946 41.5464 34.218 40.9461 33.7396C40.6048 33.4676 40.3804 32.9795 40.156 32.6109C39.9978 32.3509 39.8355 32.0942 39.6745 31.8359C39.5436 31.626 39.6506 31.6606 39.84 31.708C40.5884 31.8951 41.3124 32.2065 41.977 32.5959C42.8211 33.0904 43.738 33.5178 44.5504 34.0594C45.0889 34.4184 45.308 34.9334 45.7393 35.3951C46.0621 35.7405 46.4993 35.7839 46.853 36.0572C47.1209 36.2642 47.1105 36.1004 46.7928 35.982C45.6706 35.5639 44.4376 34.9518 43.5384 34.1573C42.8977 33.5912 42.5468 32.7041 41.8942 32.182C41.8236 32.1256 41.6285 31.85 41.8566 31.9413C42.6197 32.2465 43.4421 32.7139 44.0764 33.2355C44.6784 33.7306 44.9858 34.4471 45.333 35.1204C45.5582 35.5571 45.7712 35.9378 45.9199 36.4109C46.0416 36.7979 46.1382 37.1918 46.266 37.5772C46.3484 37.8255 46.7111 38.4268 46.5821 38.7134C46.2712 39.4043 44.779 39.0179 44.3397 38.909C42.9954 38.5758 41.6733 37.9958 40.442 37.3665C40.1604 37.2226 39.9776 37.0919 40.3818 37.1408C40.9437 37.2087 41.5048 37.2792 42.0673 37.3439C43.7016 37.5321 45.3405 37.8812 46.9132 38.3673C47.0569 38.4117 47.4581 38.573 47.3082 38.5855C46.5747 38.6466 45.7782 38.4938 45.0508 38.4312C44.0064 38.3414 40.8795 38.0078 41.9206 38.1303C42.8667 38.2416 43.8484 38.2176 44.7987 38.1867C45.3396 38.1691 45.8819 38.1226 46.409 37.9948C46.5029 37.9721 46.8017 37.9236 46.8718 37.8255C46.9303 37.7436 46.6749 37.7797 46.5745 37.7728C45.8079 37.7207 45.042 37.6797 44.2795 37.5772C43.2608 37.4402 42.2632 37.2273 41.2697 36.9677C41.1156 36.9274 40.6702 36.7997 41.0741 37.0053C42.4649 37.7136 43.4801 38.886 44.2494 40.2259C44.7443 41.0877 45.2308 41.9661 45.6189 42.882C45.7658 43.2287 45.9815 43.6715 46.0328 44.0559C46.066 44.3054 42.3249 43.7712 41.9018 43.5405C41.8385 43.5059 41.9554 43.3363 41.962 43.3185C42.2176 42.6238 42.1829 41.8329 42.1877 41.1062C42.195 40.0053 42.1964 38.8933 42.1049 37.7954C42.0912 37.631 41.9793 37.1492 42.0297 37.3063C42.4699 38.6777 42.5959 40.1304 42.895 41.5351C42.8975 41.547 43.2733 43.0679 43.3691 42.63C43.5849 41.6432 43.084 40.5342 42.8499 39.5976C42.8493 39.5954 42.608 38.8758 42.8837 39.1423C43.2213 39.4687 43.4055 39.9524 43.5873 40.3726C43.964 41.2434 44.3097 42.1348 44.5956 43.0401C44.6498 43.2118 44.6525 43.4617 44.5429 43.6119C44.1302 44.1776 43.1962 44.0181 42.7257 44.4886C42.6607 44.5535 42.2325 44.893 42.5037 44.8986C43.2622 44.9144 44.0173 44.9664 44.7762 44.9664C45.6578 44.9664 46.3793 44.7821 47.1389 44.3192C47.8891 43.8621 48.6219 43.362 49.3888 42.9347C50.8156 42.1398 52.3672 41.5537 53.8809 40.9482C53.9837 40.9071 55.3731 40.4467 54.7651 40.3952C52.5664 40.2088 50.2698 41.1132 48.151 41.5652C47.1418 41.7805 46.1254 41.9636 45.1035 42.107C44.9792 42.1245 44.9566 42.1221 45.0471 42.1221C45.221 42.1221 45.2887 42.1247 45.4872 42.107C46.2581 42.0385 46.9909 41.7806 47.7258 41.554C48.896 41.1931 50.0668 40.8342 51.236 40.4704C51.6398 40.3448 52.2755 40.2752 51.4956 40.1807C49.0756 39.8874 46.8207 40.5987 44.5128 41.2567C44.3814 41.2942 43.4618 41.5554 43.2336 41.633C43.122 41.6709 42.8383 41.7262 42.9251 41.806C43.1569 42.0193 44.3774 41.5228 44.573 41.4674C46.2787 40.9845 48.0054 40.607 49.7424 40.256C49.8822 40.2277 51.3936 39.8451 51.3301 39.7932C51.1378 39.6358 50.2736 39.7518 50.0998 39.7518C48.8951 39.7518 47.6994 39.7817 46.4993 39.8985C45.6009 39.986 44.6948 40.0835 43.8017 40.2183C43.6973 40.2341 43.6327 40.2807 43.7679 40.3237C44.0985 40.4289 44.5699 40.3625 44.9003 40.3538C45.8278 40.3294 46.7458 40.2465 47.6656 40.128C48.23 40.0553 49.7584 39.614 50.1337 40.3011C50.7207 41.3758 49.8618 42.576 49.005 43.1605C48.72 43.3549 46.9795 44.2635 46.8078 43.405C46.7825 43.2782 47.0035 42.9409 47.0035 43.0702C47.0035 43.1469 46.8783 43.1761 46.8605 43.2508C46.7834 43.5734 46.8645 43.9425 46.9282 44.2591C47.0694 44.9608 46.9952 44.4953 47.4999 45C47.6248 45.1249 47.9941 45.829 47.9817 45.6887C47.9718 45.5781 47.8491 45.5257 47.7747 45.4668C47.5708 45.305 47.5224 45.1144 47.5189 44.8573C47.5125 44.3866 47.6018 43.9065 47.6731 43.4426C47.7126 43.1858 47.844 42.9245 47.8575 42.6676C47.8925 42.0019 46.7191 41.9643 46.9734 42.5284C47.3168 43.2905 48.5966 43.4491 49.2909 43.4915C50.4977 43.5653 51.7082 43.4418 52.8952 43.2282C53.359 43.1447 53.8947 43.0331 54.355 42.8933C54.445 42.866 54.5401 42.8439 54.6184 42.7918C54.6607 42.7635 54.5161 42.8017 54.4679 42.8181C53.1354 43.2723 51.8767 43.9959 50.5927 44.5676C49.9528 44.8524 49.5652 45.0138 48.9599 45.2674C48.8647 45.3072 48.6016 45.4536 48.6702 45.3765C48.9204 45.0949 49.4256 44.9099 49.7424 44.7444C50.4996 44.3488 51.2205 43.9191 51.9321 43.4464C53.6375 42.3135 55.3727 41.2009 57.3272 40.5494C57.5982 40.4591 57.8198 40.2832 58.0947 40.1958C58.3447 40.1162 58.3045 40.0634 58.0797 40.207C57.364 40.6643 56.4554 41.0069 55.9728 41.7308C55.9412 41.7782 55.7202 42.1433 55.8223 42.0769C56.3811 41.7137 57.0044 41.423 57.5981 41.1213C57.9484 40.9433 58.2863 40.7467 58.6215 40.5419C58.991 40.3161 57.9032 41.0259 57.5417 41.2643C56.9528 41.6524 56.4647 42.1978 55.8449 42.5284C55.5775 42.671 55.6124 42.5281 55.6003 42.1785C55.5752 41.4511 55.5931 40.7184 55.7997 40.0152C55.8929 39.6981 56.1428 38.8286 56.5748 38.8037C57.4614 38.7526 58.158 39.0029 58.9826 39.2778" stroke="#020403" stroke-width="2" stroke-linecap="round"/>
    <path d="M59.2537 39.2778C61.0107 39.2778 60.3202 35.6508 60.2018 34.7103C60.113 34.005 60.0664 33.3478 60.0664 32.6411C60.0664 32.2422 60.272 32.6394 60.3749 32.8367C60.5551 33.1821 60.8511 33.6118 60.879 34.003C60.8903 34.1605 60.9364 34.4155 60.721 34.2438C59.9867 33.6585 59.5388 32.6857 58.9603 31.9563C58.4601 31.3257 57.9868 30.474 57.0791 30.474C57.0014 30.474 57.2349 30.481 57.3124 30.474C57.4564 30.4609 57.5307 30.3315 57.5983 30.2181C58.1098 29.3611 58.5902 28.4856 59.0355 27.592C59.7621 26.1341 60.4099 24.6328 61.0897 23.1525C61.4088 22.4578 61.6592 21.7287 62.0303 21.0607" stroke="#020403" stroke-width="2" stroke-linecap="round"/>
    <path d="M63.1138 9.95434C63.3317 9.92321 63.5252 9.81824 63.7195 9.72107C63.9753 9.59315 64.2635 9.55726 64.5133 9.42009C65.0653 9.11707 65.675 8.65208 66.0258 8.12585" stroke="#020403" stroke-width="2" stroke-linecap="round"/>
    <path d="M40.6745 46.6392C40.6887 46.7169 40.7427 46.7789 40.7569 46.8573C40.7855 47.0145 40.6225 46.501 40.5614 46.6392C40.34 47.1405 38.4854 46.3979 38.2702 46.9C38.2233 47.0095 38.0891 47.5631 38.0002 47.6425C37.7537 47.8626 37.7867 47.3388 37.5006 47.5001C37.4775 47.5131 35.815 46.3134 37.301 47.5845C36.9397 46.8636 37.3758 47.8324 37.3955 47.8207C37.6961 47.6408 35.9005 46.7604 37.5004 47.8206C37.8695 47.6373 37.3855 47.5132 37.756 47.3323C38.0048 47.2108 38.5001 46.7923 39.0001 46.4999C39.1302 46.4426 39.7422 45.8186 40.9999 47C41.1044 46.932 42.3755 45.4967 42.4999 46.4999" stroke="#020403" stroke-width="2" stroke-linecap="round"/>
    <path d="M10.4375 45.3164C10.4359 45.2887 10.3906 45.2973 10.3906 45.2756C10.3906 45.2599 10.3739 45.2487 10.365 45.2375C10.364 45.2362 10.3566 45.2209 10.3557 45.2275C10.3537 45.2414 10.3555 45.2568 10.3555 45.2709C10.3555 45.2935 10.3593 45.2997 10.3707 45.3199C10.3745 45.3267 10.3819 45.3401 10.3828 45.3477C10.3863 45.3773 10.4484 45.3483 10.4609 45.3399" stroke="#020403" stroke-width="0.1" stroke-linecap="square"/>
    <rect x="10.0188" y="44.9927" width="0.323068" height="0.644441" transform="rotate(-35.3617 10.0188 44.9927)" fill="#020403"/>
    <path d="M10.5039 45.3008C10.5051 45.2906 10.5181 45.2784 10.5252 45.2713C10.5332 45.2633 10.5324 45.2532 10.5382 45.2452C10.5446 45.2364 10.5202 45.2067 10.5165 45.1975C10.5117 45.1855 10.512 45.1789 10.5024 45.1682C10.4969 45.1621 10.4848 45.1462 10.4844 45.1385C10.4838 45.1283 10.4727 45.1227 10.4727 45.115C10.4727 45.1023 10.4679 45.0866 10.4648 45.0742" stroke="#020403" stroke-width="0.1" stroke-linecap="square"/>
    <path d="M10.4688 44.9023V45.2617" stroke="#020403" stroke-width="0.1" stroke-linecap="square"/>
    <path d="M10.3241 44.8398C10.3175 44.8398 10.3507 44.8495 10.3571 44.8555C10.3626 44.8607 10.3697 44.8629 10.3757 44.8672C10.3834 44.8727 10.3867 44.8862 10.3922 44.8943C10.408 44.9172 10.4135 44.9516 10.4226 44.9774C10.4344 45.0106 10.4486 45.0428 10.4606 45.0757C10.4709 45.104 10.4887 45.1252 10.5077 45.1484C10.5237 45.168 10.5399 45.185 10.5578 45.2029C10.5719 45.217 10.5782 45.2348 10.5906 45.2491C10.5963 45.2558 10.5979 45.2658 10.6053 45.2704C10.6103 45.2734 10.6171 45.2772 10.6171 45.2832C10.6171 45.2916 10.6228 45.2992 10.6223 45.3079C10.6214 45.3218 10.5954 45.2806 10.5936 45.2773" stroke="#020403" stroke-width="0.1" stroke-linecap="square"/>
    <path d="M10.6562 44.9375H10.6797" stroke="white" stroke-width="0.1" stroke-linecap="square"/>
    <path d="M10.5937 44.9375C10.5753 44.9368 10.5464 44.9272 10.5295 44.9197C10.5205 44.9157 10.5095 44.9207 10.5023 44.9119C10.4958 44.9038 10.4969 44.8913 10.49 44.8828C10.4794 44.8697 10.4742 44.8434 10.4531 44.8398C10.4364 44.8371 10.4414 44.801 10.4414 44.7891" stroke="white" stroke-width="0.1" stroke-linecap="square"/>
    <path d="M34.5 35.5C34.5 39.413 34.9286 41.3696 37.5 44.5" stroke="white" stroke-width="1.4" stroke-linecap="round"/>
    <path d="M34.5 35.5H40.4871C40.4871 39.5909 40.8675 41.2273 37.4997 44.5" stroke="white" stroke-width="1.4" stroke-linecap="round"/>
    <path d="M35.9195 36.6097C35.8105 36.6151 35.6918 36.6804 35.5919 36.7199C35.446 36.7775 35.7957 36.7549 35.8163 36.7536C36.2125 36.7286 36.6012 36.7519 36.9974 36.6996C37.2562 36.6655 37.5114 36.6394 37.7715 36.6187C38.1513 36.5883 38.5736 36.4462 38.9586 36.522C39.1092 36.5516 39.4492 36.6686 39.4524 36.8469C39.4625 37.4009 39.2964 37.8843 39.0963 38.3977C38.9324 38.8181 38.867 39.2256 38.7781 39.6617C38.7286 39.905 38.6748 40.1403 38.5799 40.3701C38.417 40.7645 38.3848 41.1708 38.1478 41.5374C38.0587 41.6752 37.9729 41.8154 37.8949 41.9591C37.8876 41.9726 37.8037 42.1178 37.8617 42.0209C38.0004 41.789 38.0933 41.5368 38.2226 41.299C38.4792 40.8269 38.7222 40.3545 38.9538 39.8708C39.0708 39.6267 39.1981 39.4348 39.3966 39.2467C39.5889 39.0646 39.4597 39.4093 39.4299 39.4919C39.2231 40.0635 38.8621 40.5872 38.5407 41.1056C38.3217 41.4587 38.1251 41.8363 37.8688 42.1649C37.7999 42.2532 37.6892 42.5 37.5483 42.5C37.3969 42.5 37.279 41.9994 37.242 41.9096C36.799 40.8354 36.4176 39.7346 36.0822 38.626C35.9678 38.248 35.8822 37.8697 35.7177 37.5071C35.7134 37.4976 35.478 37.0313 35.5017 37.019C35.5996 36.968 35.8836 37.012 35.9884 37.0314C36.4811 37.1226 36.8225 37.3646 36.931 37.8377C37.0742 38.4623 36.9941 39.129 37.1696 39.7449C37.1815 39.7869 37.2045 39.8621 37.2527 39.8832C37.3018 39.9047 37.3294 39.68 37.3298 39.6774C37.4431 39.0525 37.5747 38.4148 37.7869 37.8118C37.806 37.7574 37.8614 37.7156 37.8854 37.7837" stroke="white" stroke-width="2" stroke-linecap="round"/>
    <path d="M63.2578 45.2031H63.2539" stroke="white" stroke-width="0.2" stroke-linecap="square"/>
    <path d="M64.418 45.8555C64.4327 45.872 64.4129 45.8921 64.4104 45.9082C64.4082 45.9222 64.3995 45.931 64.3928 45.9434C64.3865 45.955 64.384 45.9686 64.378 45.9805C64.3687 45.9992 64.3544 46.028 64.3398 46.0425C64.3313 46.0511 64.3047 46.0603 64.3047 46.0703" stroke="white" stroke-width="0.2" stroke-linecap="square"/>
    <path d="M64.3086 46.043V46.1484" stroke="white" stroke-width="0.2" stroke-linecap="square"/>
    <path d="M9.99951 45.5C12.4995 53 33.9998 50 34.4998 58" stroke="#020403" stroke-width="1.4"/>
    <path d="M9.57616 45.5C-1.4193 55.0565 -2.05589 103.978 16.7217 130.798C17.0083 117.283 16.7217 99.5368 16.7217 99.5368C16.7217 99.5368 16.7217 73.1883 16.7217 67.3827" stroke="#020403" stroke-width="1.4"/>
    <path d="M31.3999 53.5C31.3999 53.5 34.4999 55 34.9999 57C35.4999 59 35.9999 59.5 36.9999 59.5" stroke="black" stroke-width="0.5" stroke-linecap="square"/>
    <path d="M64.8496 45.5C62.3496 53 40.8494 50 40.3494 58" stroke="#020403" stroke-width="1.4"/>
    <path d="M65.273 45.5C76.2684 55.0565 76.905 103.978 58.1274 130.798C57.8408 117.283 58.1274 99.5368 58.1274 99.5368C58.1274 99.5368 58.1274 73.1883 58.1274 67.3827" stroke="#020403" stroke-width="1.4"/>
    <path d="M43.4492 53.5C43.4492 53.5 40.3493 55 39.8493 57C39.3493 59 38.8493 59.5 37.8493 59.5" stroke="black" stroke-width="0.5" stroke-linecap="square"/>
    <path d="M37 59.5L38 59.5" stroke="#020403" stroke-width="0.5" stroke-linecap="square"/>
    </svg>
    